<?xml version="1.0" encoding="utf-8"?>
<!-- Generator: Adobe Illustrator 24.1.2, SVG Export Plug-In . SVG Version: 6.00 Build 0)  -->
<svg version="1.1" id="Layer_1" xmlns="http://www.w3.org/2000/svg" xmlns:xlink="http://www.w3.org/1999/xlink" x="0px" y="0px"
	 viewBox="0 0 800 800" style="enable-background:new 0 0 800 800;" xml:space="preserve">
<style type="text/css">
	.st0{fill:none;}
	.st1{fill:#FFFFFF;stroke:#FFFFFF;stroke-width:4;stroke-miterlimit:10;}
	.st2{fill:#FFFFFF;}
	.st3{fill:#FFC74E;}
</style>
<g id="LOGO">
	<g>
		<rect x="49.33" y="15" class="st0" width="918.31" height="341.82"/>
		<path class="st1" d="M63.36,249.86h-8.98l183.23-199.5h6.73v200.06h-6.17V61.58L63.36,249.86z"/>
		<path class="st1" d="M287.55,50.35l69.31,55.84c0.37,0.38,0.75,0.66,1.12,0.84c0.93,0.38,1.5,0.47,1.68,0.28l67.62-56.96h6.73
			v200.06h-6.73V61.01l-68.75,56.4l-70.43-56.4h-0.56v189.4h-6.73V50.35H287.55z"/>
		<path class="st1" d="M551.87,197.95h-0.56c-3.37,0.56-6.78,1.17-10.24,1.82c-3.46,0.66-6.97,0.98-10.52,0.98v-6.73
			c11.79-0.75,22.49-3.74,32.13-8.98c9.63-5.23,17.44-12.07,23.43-20.48c5.98-8.42,9.77-18,11.36-28.76
			c1.59-10.75,0.33-21.93-3.79-33.53c-3.74-9.91-9.59-18.56-17.54-25.96c-7.95-7.39-16.98-12.49-27.08-15.29
			c-0.56,0-1.78-0.28-3.65-0.84c-1.87-0.56-3.09-0.84-3.65-0.84c-0.38,0-1.03-0.09-1.96-0.28c-0.94-0.18-1.59-0.28-1.96-0.28h-60.33
			v191.09h-7.3V51.47h63.7c7.3,0,14.54,1.36,21.75,4.07c7.2,2.71,13.61,6.22,19.22,10.52c8.42,6.17,15.1,13.71,20.06,22.59
			c4.96,8.89,8.04,18.24,9.26,28.06c1.21,9.82,0.51,19.69-2.1,29.6c-2.62,9.92-7.29,18.9-14.03,26.94
			c-3.93,4.87-8.33,9.03-13.19,12.49c-4.87,3.46-10.1,6.59-15.71,9.4v0.56l40.69,54.16h-8.42L551.87,197.95z"/>
		<path class="st1" d="M762.03,50.35v6.17H644.75v77.16h48.54v7.3h-48.54v102.14h113.92v6.73H638.01V50.35H762.03z"/>
	</g>
</g>
<g>
	<path class="st2" d="M152.57,291.17c0-0.51,0.2-0.96,0.59-1.36c0.4-0.4,0.82-0.59,1.27-0.59H212c0.51,0,0.96,0.2,1.36,0.59
		c0.4,0.4,0.59,0.85,0.59,1.36l-0.25,14.54c0,2.1-0.2,4.14-0.59,6.12c-0.4,1.98-0.99,3.97-1.78,5.95c-0.79,1.81-1.73,3.54-2.8,5.19
		c-1.08,1.65-2.32,3.18-3.74,4.59c-2.83,2.89-6.06,5.1-9.68,6.63c-3.79,1.64-7.75,2.47-11.89,2.47c-4.08,0-8.01-0.82-11.8-2.47
		c-3.68-1.53-6.91-3.74-9.68-6.63c-1.42-1.42-2.66-2.95-3.74-4.59c-1.08-1.65-2.01-3.37-2.8-5.19c-0.79-1.98-1.39-3.97-1.78-5.95
		c-0.4-1.98-0.59-4.03-0.59-6.12L152.57,291.17z M210.13,293.12h-53.66l0.17,12.62c0,3.73,0.69,7.23,2.08,10.5
		c1.39,3.28,3.3,6.14,5.74,8.6s5.26,4.39,8.46,5.8s6.65,2.12,10.33,2.12c3.68,0,7.14-0.71,10.37-2.12s6.06-3.35,8.5-5.8
		s4.35-5.32,5.74-8.6c1.39-3.28,2.08-6.78,2.08-10.5L210.13,293.12z"/>
	<path class="st2" d="M185.85,359.51H156.3v33.11c0,0.56-0.2,1.02-0.59,1.36c-0.4,0.34-0.82,0.51-1.27,0.51
		c-0.57,0-1.03-0.17-1.4-0.51c-0.37-0.34-0.55-0.79-0.55-1.36v-34.89c0-0.57,0.18-1.03,0.55-1.4c0.37-0.37,0.83-0.55,1.4-0.55h57.65
		c0.57,0,1.03,0.18,1.4,0.55c0.37,0.37,0.55,0.83,0.55,1.4v34.89c0,0.56-0.18,1.02-0.55,1.36c-0.37,0.34-0.84,0.51-1.4,0.51
		c-0.51,0-0.95-0.17-1.32-0.51c-0.37-0.34-0.55-0.79-0.55-1.36v-33.11h-20.55v33.11c0,0.56-0.18,1.02-0.55,1.36
		c-0.37,0.34-0.81,0.51-1.32,0.51c-0.57,0-1.03-0.17-1.4-0.51c-0.37-0.34-0.55-0.79-0.55-1.36V359.51z"/>
	<path class="st2" d="M152.31,432.44c0-2.26,0.2-4.36,0.59-6.28c0.4-1.93,0.96-3.71,1.7-5.35c1.41-2.66,3.2-4.73,5.35-6.2
		c0.9-0.68,1.83-1.19,2.76-1.53c0.93-0.34,1.77-0.6,2.5-0.77c0.73-0.17,1.33-0.27,1.78-0.3c0.45-0.03,0.71-0.04,0.76-0.04v3.9
		c-0.62,0-1.25,0.09-1.87,0.25c-0.57,0.11-1.2,0.31-1.91,0.6c-0.71,0.28-1.4,0.68-2.08,1.19c-3.85,2.72-5.77,7.56-5.77,14.52
		c0,6.96,2.04,11.8,6.11,14.52c1.47,0.96,2.86,1.56,4.16,1.78c1.3,0.23,2.01,0.34,2.12,0.34c0.06,0,0.27-0.02,0.64-0.04
		c0.37-0.03,0.83-0.11,1.4-0.25c0.57-0.14,1.22-0.36,1.95-0.64c0.73-0.29,1.47-0.68,2.21-1.19c4.13-2.72,6.2-7.55,6.2-14.52
		c0-2.66,0.27-4.97,0.81-6.92c0.54-1.95,1.22-3.65,2.04-5.09c0.82-1.44,1.73-2.65,2.72-3.61c0.99-0.96,1.97-1.73,2.93-2.29
		c1.07-0.63,2.12-1.11,3.14-1.44c1.02-0.34,1.94-0.6,2.76-0.77c0.82-0.17,1.47-0.27,1.95-0.3c0.48-0.03,0.75-0.04,0.81-0.04
		c0.06,0,0.31,0.01,0.76,0.04c0.45,0.03,1.03,0.13,1.74,0.3c0.71,0.17,1.51,0.43,2.42,0.77c0.9,0.34,1.84,0.85,2.8,1.53
		c1.13,0.79,2.12,1.7,2.97,2.72c0.85,1.02,1.61,2.18,2.29,3.48c1.47,3.28,2.21,7.16,2.21,11.63c0,2.6-0.25,4.89-0.76,6.88
		c-0.51,1.98-1.15,3.69-1.91,5.14c-0.76,1.44-1.64,2.63-2.63,3.57c-0.99,0.93-1.94,1.71-2.84,2.33c-1.02,0.62-2.02,1.12-3.01,1.49
		c-0.99,0.37-1.87,0.64-2.63,0.81s-1.39,0.27-1.87,0.3c-0.48,0.03-0.75,0.04-0.81,0.04v-3.9c0.68-0.06,1.36-0.17,2.04-0.34
		c0.62-0.11,1.32-0.31,2.08-0.59c0.76-0.29,1.54-0.68,2.33-1.19c4.13-2.72,6.2-7.55,6.2-14.52c0-7.07-1.92-11.94-5.75-14.6
		c-0.73-0.51-1.42-0.89-2.07-1.15c-0.65-0.25-1.23-0.44-1.73-0.55c-0.62-0.17-1.21-0.25-1.78-0.25c-0.68,0-1.38,0.09-2.11,0.25
		c-0.62,0.11-1.35,0.31-2.2,0.6c-0.85,0.28-1.66,0.71-2.45,1.27c-4.4,2.6-6.6,7.41-6.6,14.43c0,2.6-0.24,4.89-0.72,6.88
		c-0.48,1.98-1.12,3.68-1.92,5.09c-0.79,1.41-1.67,2.6-2.64,3.57c-0.96,0.96-1.9,1.75-2.81,2.38c-0.97,0.62-1.93,1.12-2.89,1.49
		c-0.97,0.37-1.82,0.64-2.55,0.81c-0.74,0.17-1.35,0.27-1.83,0.3c-0.48,0.03-0.75,0.04-0.81,0.04c-0.06,0-0.33-0.01-0.81-0.04
		c-0.48-0.03-1.11-0.13-1.87-0.3c-0.77-0.17-1.63-0.44-2.6-0.81c-0.97-0.37-1.93-0.86-2.89-1.49c-2.38-1.59-4.26-3.68-5.62-6.28
		C153.13,440.9,152.31,437.02,152.31,432.44z"/>
	<path class="st2" d="M152.4,476.63c0-0.55,0.2-1.01,0.59-1.37c0.4-0.36,0.82-0.54,1.27-0.54h57.39c0.45,0,0.88,0.18,1.27,0.54
		c0.4,0.36,0.59,0.82,0.59,1.37c0,0.61-0.2,1.09-0.59,1.45c-0.4,0.36-0.82,0.54-1.27,0.54h-57.39c-0.45,0-0.88-0.18-1.27-0.54
		C152.6,477.72,152.4,477.24,152.4,476.63z"/>
	<path class="st2" d="M151.38,531.68c0-4.19,0.82-8.26,2.46-12.22c1.64-3.79,3.88-7.1,6.71-9.93c2.83-2.83,6.14-5.07,9.93-6.71
		c3.91-1.64,7.95-2.46,12.14-2.46c4.19,0,8.26,0.82,12.23,2.46c3.79,1.64,7.1,3.88,9.93,6.71c2.83,2.83,5.06,6.14,6.71,9.93
		c1.64,3.96,2.46,8.04,2.46,12.22c0,4.08-0.72,7.95-2.16,11.63c-1.44,3.68-3.58,6.99-6.41,9.93c-0.34,0.4-0.78,0.59-1.32,0.59
		c-0.54,0-1.01-0.2-1.4-0.59c-0.4-0.34-0.61-0.78-0.64-1.32c-0.03-0.54,0.16-1.01,0.55-1.4c2.43-2.55,4.3-5.43,5.6-8.66
		c1.3-3.23,1.95-6.62,1.95-10.19c0-3.79-0.72-7.34-2.17-10.65c-1.45-3.31-3.42-6.21-5.92-8.7c-2.5-2.49-5.41-4.46-8.73-5.9
		s-6.88-2.17-10.69-2.17c-3.75,0-7.3,0.72-10.65,2.17c-3.35,1.44-6.26,3.41-8.73,5.9c-2.47,2.49-4.43,5.39-5.88,8.7
		c-1.45,3.31-2.17,6.86-2.17,10.65c0,3.17,0.53,6.21,1.58,9.13c1.05,2.91,2.57,5.62,4.56,8.11h19.34V527.1
		c0-0.57,0.19-1.03,0.58-1.4c0.39-0.37,0.83-0.55,1.33-0.55c0.55,0,1.01,0.18,1.37,0.55c0.36,0.37,0.54,0.83,0.54,1.4v23.77
		c0,0.51-0.18,0.96-0.55,1.36c-0.37,0.4-0.83,0.59-1.4,0.59h-22.1c-0.62,0-1.1-0.23-1.44-0.68c-2.48-2.89-4.38-6.08-5.67-9.59
		C152.03,539.04,151.38,535.42,151.38,531.68z"/>
	<path class="st2" d="M153.16,612.33l-0.08-0.08v-0.08h-0.08v-0.08h-0.08V612l-0.08-0.08v-0.08l-0.17-0.17v-0.08v-0.08l-0.08-0.08
		v-0.17v-0.08v-0.08v-0.08v-0.08v-0.08v-0.08v-0.08v-0.08c0-0.06,0.01-0.1,0.04-0.13c0.03-0.03,0.04-0.07,0.04-0.13
		c0-0.06,0.01-0.1,0.04-0.13c0.03-0.03,0.04-0.07,0.04-0.13c0-0.06,0.03-0.08,0.08-0.08v-0.08c0-0.06,0.03-0.08,0.08-0.08v-0.08
		h0.08v-0.08h0.08v-0.08l0.08-0.08l0.08-0.08h0.08c0-0.06,0.03-0.08,0.08-0.08l0.08-0.08h0.08l50.77-29.8h-49.92
		c-0.51,0-0.95-0.18-1.32-0.55c-0.37-0.37-0.55-0.84-0.55-1.4c0-0.57,0.18-1.03,0.55-1.4c0.37-0.37,0.81-0.55,1.32-0.55h57.05h0.08
		h0.08h0.08h0.08h0.08l0.08,0.08h0.08h0.08h0.08v0.08h0.08c0,0.06,0.03,0.08,0.08,0.08h0.08v0.08h0.08l0.08,0.08
		c0.06,0,0.08,0.03,0.08,0.08l0.08,0.08h0.08v0.08h0.08v0.08c0,0.06,0.03,0.08,0.08,0.08v0.08l0.08,0.08v0.08l0.08,0.08v0.08
		l0.08,0.08v0.08v0.08v0.08v0.08c0.06,0,0.08,0.03,0.08,0.08v0.08v0.08v0.08v0.08v0.08c-0.06,0-0.08,0.03-0.08,0.08v0.08v0.08v0.08
		c-0.06,0-0.08,0.03-0.08,0.08v0.08c0,0.06-0.03,0.08-0.08,0.08v0.08v0.08h-0.08v0.08l-0.08,0.08l-0.08,0.08l-0.08,0.08l-0.08,0.08
		l-0.08,0.08l-0.08,0.08h-0.08c0,0.06-0.03,0.08-0.08,0.08l-50.85,29.8h50c0.45,0,0.88,0.18,1.27,0.55c0.4,0.37,0.59,0.83,0.59,1.4
		c0,0.57-0.2,1.03-0.59,1.4c-0.4,0.37-0.82,0.55-1.27,0.55h-57.14h-0.08h-0.08h-0.08h-0.08c-0.06,0-0.08-0.03-0.08-0.08h-0.08h-0.08
		c-0.06,0-0.08-0.03-0.08-0.08h-0.08c-0.06,0-0.08-0.03-0.08-0.08h-0.08l-0.08-0.08l-0.08-0.08h-0.08
		C153.25,612.36,153.22,612.33,153.16,612.33z"/>
</g>
<g>
	<path class="st2" d="M29.87,311.21c0-2.26,0.2-4.36,0.59-6.28c0.4-1.92,0.96-3.71,1.7-5.35c1.41-2.66,3.2-4.73,5.35-6.2
		c0.9-0.68,1.83-1.19,2.76-1.53c0.93-0.34,1.77-0.59,2.5-0.76c0.73-0.17,1.33-0.27,1.78-0.3c0.45-0.03,0.71-0.04,0.76-0.04v3.91
		c-0.62,0-1.25,0.08-1.87,0.25c-0.57,0.11-1.2,0.31-1.91,0.59c-0.71,0.28-1.4,0.68-2.08,1.19c-3.85,2.72-5.77,7.56-5.77,14.52
		c0,6.96,2.04,11.8,6.11,14.52c1.47,0.96,2.86,1.56,4.16,1.78c1.3,0.23,2.01,0.34,2.12,0.34c0.06,0,0.27-0.01,0.64-0.04
		c0.37-0.03,0.83-0.11,1.4-0.25c0.57-0.14,1.22-0.35,1.95-0.64c0.73-0.28,1.47-0.68,2.21-1.19c4.13-2.72,6.2-7.56,6.2-14.52
		c0-2.66,0.27-4.97,0.81-6.92c0.54-1.95,1.22-3.65,2.04-5.09c0.82-1.44,1.73-2.65,2.72-3.61c0.99-0.96,1.97-1.73,2.93-2.29
		c1.07-0.62,2.12-1.1,3.14-1.44c1.02-0.34,1.94-0.59,2.76-0.76c0.82-0.17,1.47-0.27,1.95-0.3c0.48-0.03,0.75-0.04,0.81-0.04
		c0.06,0,0.31,0.01,0.76,0.04c0.45,0.03,1.03,0.13,1.74,0.3c0.71,0.17,1.51,0.42,2.42,0.76c0.9,0.34,1.84,0.85,2.8,1.53
		c1.13,0.79,2.12,1.7,2.97,2.72c0.85,1.02,1.61,2.18,2.29,3.48c1.47,3.28,2.21,7.16,2.21,11.63c0,2.6-0.25,4.9-0.76,6.88
		c-0.51,1.98-1.15,3.69-1.91,5.14c-0.76,1.44-1.64,2.63-2.63,3.57c-0.99,0.93-1.94,1.71-2.84,2.33c-1.02,0.62-2.02,1.12-3.01,1.49
		c-0.99,0.37-1.87,0.64-2.63,0.81c-0.76,0.17-1.39,0.27-1.87,0.3c-0.48,0.03-0.75,0.04-0.81,0.04v-3.91
		c0.68-0.06,1.36-0.17,2.04-0.34c0.62-0.11,1.32-0.31,2.08-0.59c0.76-0.28,1.54-0.68,2.33-1.19c4.13-2.72,6.2-7.56,6.2-14.52
		c0-7.08-1.92-11.94-5.75-14.6c-0.73-0.51-1.42-0.89-2.07-1.15c-0.65-0.25-1.23-0.44-1.73-0.55c-0.62-0.17-1.21-0.25-1.78-0.25
		c-0.68,0-1.38,0.08-2.11,0.25c-0.62,0.11-1.35,0.31-2.2,0.59c-0.85,0.28-1.66,0.71-2.45,1.27c-4.4,2.6-6.6,7.41-6.6,14.43
		c0,2.6-0.24,4.9-0.72,6.88c-0.48,1.98-1.12,3.68-1.92,5.09c-0.79,1.41-1.67,2.6-2.64,3.57c-0.96,0.96-1.9,1.75-2.81,2.38
		c-0.97,0.62-1.93,1.12-2.89,1.49c-0.97,0.37-1.82,0.64-2.55,0.81c-0.74,0.17-1.35,0.27-1.83,0.3c-0.48,0.03-0.75,0.04-0.81,0.04
		c-0.06,0-0.33-0.01-0.81-0.04c-0.48-0.03-1.11-0.13-1.87-0.3c-0.77-0.17-1.63-0.44-2.6-0.81c-0.97-0.37-1.93-0.86-2.89-1.49
		c-2.38-1.59-4.26-3.68-5.62-6.28C30.69,319.67,29.87,315.8,29.87,311.21z"/>
	<path class="st2" d="M90.45,392.08c-0.37,0.37-0.81,0.55-1.32,0.55s-0.96-0.18-1.36-0.55c-0.4-0.37-0.59-0.84-0.59-1.4v-19.61
		H31.82c-0.51,0-0.95-0.18-1.32-0.55c-0.37-0.37-0.55-0.84-0.55-1.4c0-0.57,0.18-1.03,0.55-1.4c0.37-0.37,0.81-0.55,1.32-0.55h55.35
		v-19.61c0-0.57,0.2-1.03,0.59-1.4c0.4-0.37,0.85-0.55,1.36-0.55s0.95,0.18,1.32,0.55c0.37,0.37,0.55,0.83,0.55,1.4v43.13
		C91,391.24,90.81,391.71,90.45,392.08z"/>
	<path class="st2" d="M32.33,438.13c-0.51,0.17-0.99,0.14-1.44-0.08c-0.45-0.23-0.79-0.6-1.02-1.1c-0.06-0.12-0.08-0.34-0.08-0.68
		c0-0.4,0.1-0.76,0.3-1.1c0.2-0.34,0.52-0.57,0.98-0.68l3.91-1.53l11.21-32.26l-15.11-5.69c-0.51-0.17-0.88-0.51-1.1-1.02
		c-0.23-0.51-0.25-0.99-0.08-1.44c0.23-0.51,0.56-0.89,1.02-1.15c0.45-0.25,0.93-0.27,1.44-0.04l57.39,21.56
		c0.85,0.28,1.27,0.88,1.27,1.78c0,0.96-0.42,1.58-1.27,1.87L32.33,438.13z M39.63,431.26l43.89-16.55l-33.79-12.65L39.63,431.26z"
		/>
	<path class="st2" d="M60.82,486.68c-1.36,2.61-3.32,4.72-5.87,6.34c-2.55,1.62-5.38,2.42-8.5,2.42c-2.27,0-4.39-0.43-6.38-1.28
		c-1.98-0.85-3.71-2.03-5.19-3.53c-1.47-1.5-2.64-3.25-3.49-5.23c-0.85-1.99-1.27-4.11-1.27-6.38l0.08-22.21
		c0-0.57,0.18-1.03,0.55-1.4c0.37-0.37,0.81-0.55,1.32-0.55h57.39c0.51,0,0.95,0.18,1.32,0.55c0.37,0.37,0.55,0.84,0.55,1.4
		l0.08,22.21c0,2.27-0.42,4.39-1.27,6.38c-0.85,1.98-2.01,3.73-3.48,5.23s-3.19,2.68-5.17,3.53c-1.98,0.85-4.1,1.28-6.36,1.28
		c-3.11,0-5.93-0.81-8.48-2.42C64.12,491.4,62.17,489.29,60.82,486.68z M33.95,479c0,1.69,0.32,3.3,0.98,4.83
		c0.65,1.52,1.54,2.87,2.67,4.02c1.13,1.16,2.46,2.06,3.99,2.71c1.53,0.65,3.14,0.97,4.84,0.97c1.7,0,3.31-0.33,4.84-0.97
		c1.53-0.65,2.86-1.55,3.99-2.71c1.13-1.16,2.02-2.5,2.67-4.02c0.65-1.52,0.98-3.13,0.98-4.83v-20.24H34.03L33.95,479z M87.6,458.76
		H62.73V479c0,1.69,0.33,3.3,0.98,4.83c0.65,1.52,1.54,2.87,2.67,4.02c1.13,1.16,2.46,2.06,3.99,2.71c1.53,0.65,3.14,0.97,4.84,0.97
		c1.7,0,3.31-0.33,4.84-0.97c1.53-0.65,2.86-1.55,3.99-2.71c1.13-1.16,2.02-2.5,2.67-4.02c0.65-1.52,0.98-3.13,0.98-4.83
		L87.6,458.76z"/>
	<path class="st2" d="M29.96,520.19c0-0.55,0.2-1.01,0.59-1.37c0.4-0.36,0.82-0.54,1.27-0.54h57.39c0.45,0,0.88,0.18,1.27,0.54
		c0.4,0.36,0.59,0.82,0.59,1.37c0,0.61-0.2,1.09-0.59,1.45c-0.4,0.36-0.82,0.54-1.27,0.54H31.82c-0.45,0-0.88-0.18-1.27-0.54
		C30.15,521.28,29.96,520.8,29.96,520.19z"/>
	<path class="st2" d="M30.04,585.52v-35.36c0-0.52,0.18-0.97,0.55-1.35c0.37-0.38,0.81-0.56,1.32-0.56h56.8
		c0.45,0,0.88,0.19,1.27,0.56c0.4,0.38,0.59,0.82,0.59,1.35c0,0.58-0.2,1.06-0.59,1.43c-0.4,0.38-0.82,0.56-1.27,0.56H33.86v33.37
		c0,0.45-0.19,0.88-0.57,1.27c-0.38,0.39-0.82,0.59-1.34,0.59c-0.52,0-0.97-0.2-1.35-0.59C30.23,586.39,30.04,585.97,30.04,585.52z"
		/>
	<path class="st2" d="M29.96,602.54c0-0.55,0.2-1.01,0.59-1.37c0.4-0.36,0.82-0.54,1.27-0.54h57.39c0.45,0,0.88,0.18,1.27,0.54
		c0.4,0.36,0.59,0.82,0.59,1.37c0,0.61-0.2,1.09-0.59,1.45c-0.4,0.36-0.82,0.54-1.27,0.54H31.82c-0.45,0-0.88-0.18-1.27-0.54
		C30.15,603.63,29.96,603.15,29.96,602.54z"/>
	<path class="st2" d="M90.45,670.46c-0.37,0.37-0.81,0.55-1.32,0.55s-0.96-0.18-1.36-0.55c-0.4-0.37-0.59-0.84-0.59-1.4v-19.61
		H31.82c-0.51,0-0.95-0.18-1.32-0.55c-0.37-0.37-0.55-0.83-0.55-1.4c0-0.57,0.18-1.03,0.55-1.4c0.37-0.37,0.81-0.55,1.32-0.55h55.35
		v-19.61c0-0.57,0.2-1.03,0.59-1.4c0.4-0.37,0.85-0.55,1.36-0.55s0.95,0.18,1.32,0.55c0.37,0.37,0.55,0.83,0.55,1.4v43.13
		C91,669.62,90.81,670.09,90.45,670.46z"/>
	<path class="st2" d="M90.66,741.81c-0.34,0.45-0.75,0.72-1.23,0.81c-0.48,0.08-0.95-0.04-1.4-0.38l-30.56-22.67H31.74
		c-0.45,0-0.88-0.2-1.27-0.61c-0.4-0.41-0.59-0.84-0.59-1.3c0-0.58,0.2-1.06,0.59-1.43c0.4-0.38,0.82-0.56,1.27-0.56h25.72
		l30.56-22.75c0.45-0.28,0.92-0.4,1.4-0.34c0.48,0.06,0.89,0.31,1.23,0.76c0.28,0.45,0.4,0.95,0.34,1.49
		c-0.06,0.54-0.31,0.95-0.76,1.23L61.2,717.66l29.04,21.44c0.45,0.28,0.71,0.69,0.76,1.23C91.05,740.86,90.94,741.36,90.66,741.81z"
		/>
</g>
<g>
	<path class="st2" d="M264.72,326.49v-35.36c0-0.52,0.18-0.97,0.55-1.35c0.37-0.38,0.81-0.56,1.32-0.56h56.8
		c0.45,0,0.88,0.19,1.27,0.56c0.4,0.38,0.59,0.82,0.59,1.35c0,0.58-0.2,1.06-0.59,1.43c-0.4,0.38-0.82,0.56-1.27,0.56h-54.85v33.36
		c0,0.45-0.19,0.88-0.57,1.27c-0.38,0.4-0.82,0.59-1.34,0.59c-0.52,0-0.97-0.2-1.35-0.59C264.91,327.36,264.72,326.94,264.72,326.49
		z"/>
	<path class="st2" d="M264.63,343.51c0-0.55,0.2-1.01,0.59-1.37c0.4-0.36,0.82-0.54,1.27-0.54h57.39c0.45,0,0.88,0.18,1.27,0.54
		c0.4,0.36,0.59,0.82,0.59,1.37c0,0.61-0.2,1.09-0.59,1.45c-0.4,0.36-0.82,0.54-1.27,0.54H266.5c-0.45,0-0.88-0.18-1.27-0.54
		C264.83,344.6,264.63,344.12,264.63,343.51z"/>
	<path class="st2" d="M265.4,408.5l-0.08-0.08v-0.09h-0.08v-0.08h-0.08v-0.09l-0.08-0.08v-0.09l-0.17-0.17v-0.08v-0.09l-0.08-0.08
		v-0.17v-0.08v-0.08v-0.08v-0.09v-0.08v-0.09v-0.08v-0.09c0-0.06,0.01-0.1,0.04-0.13c0.03-0.03,0.04-0.07,0.04-0.13
		c0-0.06,0.01-0.1,0.04-0.13c0.03-0.03,0.04-0.07,0.04-0.13c0-0.06,0.03-0.08,0.08-0.08v-0.08c0-0.06,0.03-0.08,0.08-0.08v-0.08
		h0.08v-0.09h0.08v-0.08l0.08-0.09l0.08-0.08h0.08c0-0.06,0.03-0.09,0.08-0.09l0.08-0.08h0.08l50.77-29.8h-49.92
		c-0.51,0-0.95-0.18-1.32-0.55c-0.37-0.37-0.55-0.84-0.55-1.4c0-0.57,0.18-1.03,0.55-1.4c0.37-0.37,0.81-0.55,1.32-0.55h57.05h0.08
		h0.08h0.08h0.08h0.08l0.08,0.08h0.08h0.08h0.08v0.08h0.08c0,0.06,0.03,0.08,0.08,0.08h0.08v0.08h0.08l0.08,0.08
		c0.06,0,0.08,0.03,0.08,0.08l0.08,0.08h0.08v0.08h0.08v0.08c0,0.06,0.03,0.08,0.08,0.08v0.08l0.08,0.08v0.08l0.08,0.08v0.08
		l0.08,0.08v0.08v0.08v0.08v0.08c0.06,0,0.08,0.03,0.08,0.08v0.08v0.08v0.08v0.08v0.08c-0.06,0-0.08,0.03-0.08,0.08v0.08v0.08v0.08
		c-0.06,0-0.08,0.03-0.08,0.08v0.08c0,0.06-0.03,0.08-0.08,0.08v0.08v0.08h-0.08v0.08l-0.08,0.08l-0.08,0.08l-0.08,0.08l-0.08,0.08
		l-0.08,0.08l-0.08,0.08h-0.08c0,0.06-0.03,0.08-0.08,0.08l-50.85,29.8h50c0.45,0,0.88,0.18,1.27,0.55c0.4,0.37,0.59,0.83,0.59,1.4
		s-0.2,1.03-0.59,1.4c-0.4,0.37-0.82,0.55-1.27,0.55h-57.14h-0.08h-0.08h-0.08h-0.08c-0.06,0-0.08-0.03-0.08-0.08h-0.08h-0.08
		c-0.06,0-0.08-0.03-0.08-0.09h-0.08c-0.06,0-0.08-0.03-0.08-0.08h-0.08l-0.08-0.09l-0.08-0.08h-0.08
		C265.48,408.52,265.45,408.5,265.4,408.5z"/>
	<path class="st2" d="M266.88,474.8c-0.48,0.06-0.95-0.08-1.4-0.42c-0.51-0.45-0.76-0.96-0.76-1.53c0-0.4,0.14-0.79,0.42-1.19
		l26.49-34.38h-24.96c-0.57,0-1.03-0.18-1.4-0.55c-0.37-0.37-0.55-0.84-0.55-1.4c0-0.57,0.18-1.03,0.55-1.4
		c0.37-0.37,0.83-0.55,1.4-0.55h57.99c0.51,0,0.95,0.18,1.32,0.55c0.37,0.37,0.55,0.83,0.55,1.4c0,0.57-0.18,1.03-0.55,1.4
		c-0.37,0.37-0.81,0.55-1.32,0.55h-25.13l26.57,34.38c0.34,0.45,0.48,0.93,0.42,1.44c-0.06,0.51-0.31,0.93-0.76,1.27
		c-0.45,0.34-0.92,0.48-1.4,0.42c-0.48-0.06-0.89-0.31-1.23-0.76l-27.51-35.57l-27.51,35.57
		C267.78,474.49,267.36,474.74,266.88,474.8z"/>
</g>
<rect x="119.66" y="288.44" class="st3" width="5.1" height="265.29"/>
<rect x="240.6" y="287.94" class="st3" width="5.18" height="122.44"/>
</svg>
