<?xml version="1.0" encoding="utf-8"?>
<!-- Generator: Adobe Illustrator 24.1.2, SVG Export Plug-In . SVG Version: 6.00 Build 0)  -->
<svg version="1.1" id="Layer_1" xmlns="http://www.w3.org/2000/svg" xmlns:xlink="http://www.w3.org/1999/xlink" x="0px" y="0px"
	 viewBox="0 0 800 800" style="enable-background:new 0 0 800 800;" xml:space="preserve">
<style type="text/css">
	.st0{fill:none;}
	.st1{stroke:#FFFFFF;stroke-width:4;stroke-miterlimit:10;}
	.st2{fill:#FFFFFF;}
	.st3{fill:#FFC74E;}
</style>
<g id="LOGO">
	<g>
		<rect x="64.11" y="35.96" class="st0" width="886.89" height="330.12"/>
		<path class="st1" d="M77.66,262.78h-8.67L245.95,70.1h6.5v193.22h-5.96V80.94L77.66,262.78z"/>
		<path class="st1" d="M294.18,70.1l66.94,53.93c0.36,0.36,0.72,0.64,1.08,0.81c0.9,0.36,1.44,0.45,1.63,0.27l65.31-55.01h6.5
			v193.22h-6.5V80.4l-66.39,54.47L294.72,80.4h-0.54v182.92h-6.5V70.1H294.18z"/>
		<path class="st1" d="M549.45,212.65h-0.54c-3.25,0.54-6.55,1.13-9.89,1.76c-3.34,0.64-6.73,0.95-10.16,0.95v-6.5
			c11.38-0.72,21.72-3.61,31.03-8.67c9.3-5.06,16.84-11.65,22.63-19.78c5.78-8.13,9.44-17.39,10.98-27.78
			c1.53-10.39,0.31-21.18-3.66-32.38c-3.62-9.57-9.26-17.93-16.94-25.07c-7.68-7.13-16.4-12.06-26.15-14.77
			c-0.54,0-1.72-0.27-3.52-0.81c-1.81-0.54-2.98-0.81-3.52-0.81c-0.36,0-1-0.09-1.9-0.27c-0.91-0.18-1.54-0.27-1.9-0.27h-58.26
			v184.55h-7.05V71.19h61.52c7.05,0,14.04,1.31,21,3.93c6.95,2.62,13.14,6.01,18.56,10.16c8.13,5.96,14.59,13.24,19.38,21.82
			c4.79,8.58,7.77,17.61,8.94,27.1c1.17,9.48,0.5,19.02-2.03,28.59c-2.53,9.58-7.05,18.25-13.55,26.02
			c-3.79,4.7-8.04,8.72-12.74,12.06c-4.7,3.35-9.76,6.37-15.18,9.08v0.54l39.29,52.3h-8.13L549.45,212.65z"/>
		<path class="st1" d="M752.42,70.1v5.96H639.15v74.52h46.88v7.05h-46.88v98.64h110.02v6.5H632.65V70.1H752.42z"/>
	</g>
</g>
<g>
	<path class="st2" d="M163.81,302.68c0-0.49,0.19-0.93,0.57-1.31c0.38-0.38,0.79-0.57,1.23-0.57h55.59c0.49,0,0.93,0.19,1.31,0.57
		c0.38,0.38,0.57,0.82,0.57,1.31l-0.25,14.05c0,2.03-0.19,4-0.57,5.91c-0.38,1.92-0.96,3.83-1.72,5.75
		c-0.77,1.75-1.67,3.42-2.71,5.01c-1.04,1.59-2.24,3.07-3.61,4.44c-2.73,2.79-5.85,4.93-9.35,6.41c-3.66,1.59-7.49,2.38-11.48,2.38
		c-3.94,0-7.74-0.79-11.4-2.38c-3.55-1.48-6.67-3.62-9.35-6.41c-1.37-1.37-2.57-2.85-3.61-4.44c-1.04-1.59-1.94-3.26-2.71-5.01
		c-0.77-1.92-1.34-3.83-1.72-5.75c-0.38-1.92-0.57-3.89-0.57-5.91L163.81,302.68z M219.4,304.57h-51.82l0.16,12.19
		c0,3.6,0.67,6.98,2.01,10.15c1.34,3.16,3.19,5.93,5.54,8.3c2.35,2.37,5.08,4.24,8.17,5.6c3.09,1.36,6.42,2.05,9.98,2.05
		c3.56,0,6.9-0.68,10.02-2.05c3.12-1.36,5.86-3.23,8.21-5.6c2.35-2.37,4.2-5.14,5.54-8.3c1.34-3.16,2.01-6.55,2.01-10.15
		L219.4,304.57z"/>
	<path class="st2" d="M195.95,368.69h-28.53v31.98c0,0.55-0.19,0.98-0.57,1.31c-0.38,0.33-0.79,0.49-1.23,0.49
		c-0.55,0-1-0.16-1.35-0.49c-0.36-0.33-0.53-0.77-0.53-1.31v-33.7c0-0.55,0.18-1,0.53-1.35c0.35-0.36,0.81-0.53,1.35-0.53h55.67
		c0.55,0,1,0.18,1.35,0.53c0.35,0.35,0.53,0.81,0.53,1.35v33.7c0,0.55-0.18,0.98-0.53,1.31c-0.36,0.33-0.81,0.49-1.35,0.49
		c-0.49,0-0.92-0.16-1.27-0.49c-0.36-0.33-0.53-0.77-0.53-1.31v-31.98h-19.84v31.98c0,0.55-0.18,0.98-0.53,1.31
		c-0.36,0.33-0.78,0.49-1.27,0.49c-0.55,0-1-0.16-1.35-0.49c-0.36-0.33-0.53-0.77-0.53-1.31V368.69z"/>
	<path class="st2" d="M163.56,439.12c0-2.19,0.19-4.21,0.57-6.07c0.38-1.86,0.93-3.58,1.64-5.17c1.37-2.57,3.09-4.56,5.17-5.99
		c0.87-0.66,1.76-1.15,2.66-1.48c0.9-0.33,1.71-0.57,2.42-0.74c0.71-0.16,1.28-0.26,1.72-0.29c0.44-0.03,0.68-0.04,0.74-0.04v3.77
		c-0.6,0-1.2,0.08-1.8,0.25c-0.55,0.11-1.16,0.3-1.84,0.57c-0.68,0.27-1.35,0.66-2.01,1.15c-3.72,2.62-5.58,7.3-5.58,14.02
		c0,6.72,1.97,11.4,5.9,14.02c1.42,0.93,2.76,1.5,4.02,1.72c1.26,0.22,1.94,0.33,2.05,0.33c0.05,0,0.26-0.01,0.61-0.04
		c0.35-0.03,0.81-0.11,1.35-0.25c0.55-0.14,1.17-0.34,1.89-0.62c0.71-0.27,1.42-0.66,2.13-1.15c3.99-2.62,5.99-7.3,5.99-14.02
		c0-2.57,0.26-4.8,0.78-6.68c0.52-1.89,1.17-3.53,1.97-4.92c0.79-1.39,1.67-2.56,2.62-3.48c0.96-0.93,1.9-1.67,2.83-2.21
		c1.04-0.6,2.05-1.07,3.03-1.39s1.87-0.57,2.66-0.74c0.79-0.16,1.42-0.26,1.89-0.29c0.46-0.03,0.72-0.04,0.78-0.04
		c0.05,0,0.3,0.01,0.74,0.04c0.44,0.03,1,0.12,1.68,0.29c0.68,0.16,1.46,0.41,2.34,0.74c0.87,0.33,1.78,0.82,2.71,1.48
		c1.09,0.76,2.05,1.64,2.87,2.62c0.82,0.98,1.56,2.1,2.21,3.36c1.42,3.17,2.13,6.92,2.13,11.23c0,2.51-0.25,4.73-0.74,6.64
		c-0.49,1.91-1.11,3.57-1.85,4.96c-0.74,1.39-1.59,2.54-2.54,3.44c-0.96,0.9-1.87,1.65-2.75,2.25c-0.98,0.6-1.96,1.08-2.91,1.44
		c-0.96,0.35-1.8,0.61-2.54,0.78c-0.74,0.16-1.34,0.26-1.8,0.29c-0.46,0.03-0.73,0.04-0.78,0.04v-3.77
		c0.66-0.05,1.31-0.16,1.97-0.33c0.6-0.11,1.27-0.3,2.01-0.57c0.74-0.27,1.49-0.66,2.25-1.15c3.99-2.62,5.99-7.3,5.99-14.02
		c0-6.83-1.85-11.54-5.56-14.1c-0.71-0.49-1.38-0.86-2-1.11s-1.19-0.42-1.67-0.53c-0.6-0.16-1.17-0.25-1.72-0.25
		c-0.65,0-1.33,0.08-2.04,0.25c-0.6,0.11-1.31,0.3-2.13,0.57c-0.82,0.27-1.61,0.68-2.37,1.23c-4.25,2.51-6.37,7.16-6.37,13.94
		c0,2.51-0.23,4.73-0.7,6.64c-0.47,1.91-1.08,3.55-1.85,4.92c-0.77,1.37-1.62,2.51-2.55,3.44c-0.93,0.93-1.84,1.69-2.71,2.3
		c-0.93,0.6-1.86,1.08-2.8,1.44c-0.93,0.35-1.75,0.61-2.47,0.78c-0.71,0.16-1.3,0.26-1.77,0.29c-0.47,0.03-0.73,0.04-0.78,0.04
		c-0.06,0-0.31-0.01-0.78-0.04c-0.47-0.03-1.07-0.12-1.81-0.29c-0.74-0.16-1.58-0.42-2.51-0.78c-0.93-0.36-1.86-0.83-2.8-1.44
		c-2.3-1.53-4.11-3.55-5.43-6.07C164.36,447.29,163.56,443.54,163.56,439.12z"/>
	<path class="st2" d="M163.64,481.79c0-0.54,0.19-0.98,0.57-1.32c0.38-0.35,0.79-0.52,1.23-0.52h55.43c0.44,0,0.85,0.17,1.23,0.52
		c0.38,0.35,0.57,0.79,0.57,1.32c0,0.59-0.19,1.06-0.57,1.4c-0.38,0.35-0.79,0.52-1.23,0.52h-55.43c-0.44,0-0.85-0.17-1.23-0.52
		C163.84,482.85,163.64,482.38,163.64,481.79z"/>
	<path class="st2" d="M162.66,534.97c0-4.05,0.79-7.98,2.38-11.81c1.58-3.66,3.74-6.86,6.48-9.59c2.73-2.73,5.93-4.89,9.59-6.48
		c3.77-1.59,7.68-2.38,11.73-2.38c4.04,0,7.98,0.79,11.81,2.38c3.66,1.58,6.86,3.74,9.59,6.48c2.73,2.73,4.89,5.93,6.48,9.59
		c1.58,3.83,2.38,7.76,2.38,11.81c0,3.94-0.7,7.68-2.09,11.23c-1.39,3.55-3.46,6.75-6.19,9.59c-0.33,0.38-0.75,0.57-1.27,0.57
		c-0.52,0-0.97-0.19-1.35-0.57c-0.38-0.33-0.59-0.75-0.62-1.27c-0.03-0.52,0.15-0.97,0.53-1.35c2.35-2.46,4.15-5.25,5.41-8.36
		c1.26-3.12,1.89-6.4,1.89-9.84c0-3.66-0.7-7.09-2.1-10.29c-1.4-3.2-3.3-6-5.72-8.4c-2.41-2.41-5.22-4.3-8.43-5.7
		c-3.21-1.39-6.65-2.09-10.32-2.09c-3.62,0-7.05,0.7-10.28,2.09c-3.24,1.39-6.05,3.29-8.43,5.7c-2.39,2.4-4.28,5.21-5.67,8.4
		c-1.4,3.2-2.1,6.63-2.1,10.29c0,3.06,0.51,6,1.52,8.81c1.01,2.81,2.48,5.42,4.4,7.83h18.68v-21.07c0-0.55,0.19-1,0.56-1.35
		c0.37-0.36,0.8-0.53,1.28-0.53c0.53,0,0.98,0.18,1.32,0.53c0.35,0.35,0.52,0.81,0.52,1.35v22.96c0,0.49-0.18,0.93-0.53,1.31
		c-0.35,0.38-0.8,0.57-1.35,0.57h-21.35c-0.6,0-1.06-0.22-1.39-0.66c-2.4-2.79-4.23-5.88-5.48-9.27
		C163.29,542.07,162.66,538.57,162.66,534.97z"/>
	<path class="st2" d="M164.38,612.86l-0.08-0.08v-0.08h-0.08v-0.08h-0.08v-0.08l-0.08-0.08v-0.08l-0.16-0.16v-0.08v-0.08l-0.08-0.08
		v-0.16v-0.08v-0.08v-0.08v-0.08v-0.08v-0.08v-0.08v-0.08c0-0.05,0.01-0.1,0.04-0.12c0.03-0.03,0.04-0.07,0.04-0.12
		s0.01-0.1,0.04-0.12c0.03-0.03,0.04-0.07,0.04-0.12c0-0.06,0.03-0.08,0.08-0.08v-0.08c0-0.06,0.03-0.08,0.08-0.08v-0.08h0.08v-0.08
		h0.08v-0.08l0.08-0.08l0.08-0.08h0.08c0-0.06,0.03-0.08,0.08-0.08l0.08-0.08h0.08l49.03-28.78h-48.21c-0.49,0-0.92-0.18-1.27-0.53
		c-0.36-0.36-0.53-0.81-0.53-1.35c0-0.55,0.18-1,0.53-1.35c0.35-0.36,0.78-0.53,1.27-0.53h55.1h0.08h0.08h0.08h0.08h0.08l0.08,0.08
		h0.08h0.08h0.08v0.08h0.08c0,0.05,0.03,0.08,0.08,0.08h0.08v0.08h0.08l0.08,0.08c0.05,0,0.08,0.03,0.08,0.08l0.08,0.08h0.08v0.08
		h0.08v0.08c0,0.05,0.03,0.08,0.08,0.08v0.08l0.08,0.08v0.08l0.08,0.08v0.08l0.08,0.08v0.08v0.08v0.08v0.08
		c0.05,0,0.08,0.03,0.08,0.08v0.08v0.08v0.08v0.08v0.08c-0.06,0-0.08,0.03-0.08,0.08v0.08v0.08v0.08c-0.06,0-0.08,0.03-0.08,0.08
		v0.08c0,0.05-0.03,0.08-0.08,0.08v0.08v0.08h-0.08v0.08l-0.08,0.08l-0.08,0.08l-0.08,0.08l-0.08,0.08l-0.08,0.08l-0.08,0.08h-0.08
		c0,0.05-0.03,0.08-0.08,0.08l-49.11,28.78h48.29c0.44,0,0.85,0.18,1.23,0.53c0.38,0.35,0.57,0.81,0.57,1.35
		c0,0.55-0.19,1-0.57,1.35c-0.38,0.35-0.79,0.53-1.23,0.53h-55.18h-0.08h-0.08h-0.08h-0.08c-0.06,0-0.08-0.03-0.08-0.08h-0.08h-0.08
		c-0.06,0-0.08-0.03-0.08-0.08h-0.08c-0.06,0-0.08-0.03-0.08-0.08h-0.08l-0.08-0.08l-0.08-0.08h-0.08
		C164.46,612.89,164.44,612.86,164.38,612.86z"/>
</g>
<g>
	<path class="st2" d="M45.31,322.04c0-2.19,0.19-4.21,0.57-6.07c0.38-1.86,0.93-3.58,1.64-5.17c1.37-2.57,3.09-4.56,5.17-5.99
		c0.87-0.66,1.76-1.15,2.66-1.48c0.9-0.33,1.71-0.57,2.42-0.74c0.71-0.16,1.28-0.26,1.72-0.29c0.44-0.03,0.68-0.04,0.74-0.04v3.77
		c-0.6,0-1.2,0.08-1.8,0.25c-0.55,0.11-1.16,0.3-1.84,0.57c-0.68,0.27-1.35,0.66-2.01,1.15c-3.72,2.62-5.58,7.3-5.58,14.02
		c0,6.72,1.97,11.4,5.9,14.02c1.42,0.93,2.76,1.5,4.02,1.72c1.26,0.22,1.94,0.33,2.05,0.33c0.05,0,0.26-0.01,0.61-0.04
		c0.35-0.03,0.81-0.11,1.35-0.25c0.55-0.14,1.17-0.34,1.89-0.61c0.71-0.27,1.42-0.66,2.13-1.15c3.99-2.62,5.99-7.3,5.99-14.02
		c0-2.57,0.26-4.8,0.78-6.68c0.52-1.89,1.17-3.53,1.97-4.92c0.79-1.39,1.67-2.56,2.62-3.48c0.96-0.93,1.9-1.67,2.83-2.21
		c1.04-0.6,2.05-1.07,3.03-1.39s1.87-0.57,2.66-0.74c0.79-0.16,1.42-0.26,1.89-0.29c0.46-0.03,0.72-0.04,0.78-0.04
		c0.05,0,0.3,0.01,0.74,0.04c0.44,0.03,1,0.12,1.68,0.29c0.68,0.16,1.46,0.41,2.34,0.74c0.87,0.33,1.78,0.82,2.71,1.48
		c1.09,0.76,2.05,1.64,2.87,2.62s1.56,2.1,2.21,3.36c1.42,3.17,2.13,6.91,2.13,11.23c0,2.51-0.25,4.73-0.74,6.64
		c-0.49,1.91-1.11,3.57-1.85,4.96c-0.74,1.39-1.59,2.54-2.54,3.44c-0.96,0.9-1.87,1.65-2.75,2.25c-0.98,0.6-1.96,1.08-2.91,1.44
		c-0.96,0.35-1.8,0.61-2.54,0.78c-0.74,0.16-1.34,0.26-1.8,0.29c-0.46,0.03-0.73,0.04-0.78,0.04v-3.77
		c0.66-0.06,1.31-0.16,1.97-0.33c0.6-0.11,1.27-0.3,2.01-0.57c0.74-0.27,1.49-0.66,2.25-1.15c3.99-2.62,5.99-7.3,5.99-14.02
		c0-6.83-1.85-11.53-5.56-14.1c-0.71-0.49-1.38-0.86-2-1.11s-1.19-0.42-1.67-0.53c-0.6-0.16-1.17-0.25-1.72-0.25
		c-0.65,0-1.33,0.08-2.04,0.25c-0.6,0.11-1.31,0.3-2.13,0.57c-0.82,0.27-1.61,0.68-2.37,1.23c-4.25,2.51-6.37,7.16-6.37,13.94
		c0,2.51-0.23,4.73-0.7,6.64c-0.47,1.91-1.08,3.55-1.85,4.92c-0.77,1.37-1.62,2.51-2.55,3.44c-0.93,0.93-1.84,1.69-2.71,2.3
		c-0.93,0.6-1.86,1.08-2.8,1.44c-0.93,0.35-1.75,0.61-2.47,0.78c-0.71,0.16-1.3,0.26-1.77,0.29c-0.47,0.03-0.73,0.04-0.78,0.04
		c-0.06,0-0.31-0.01-0.78-0.04c-0.47-0.03-1.07-0.12-1.81-0.29c-0.74-0.16-1.58-0.42-2.51-0.78c-0.93-0.36-1.86-0.83-2.8-1.44
		c-2.3-1.53-4.11-3.55-5.43-6.07C46.11,330.21,45.31,326.47,45.31,322.04z"/>
	<path class="st2" d="M103.81,400.14c-0.36,0.35-0.78,0.53-1.27,0.53c-0.49,0-0.93-0.18-1.31-0.53c-0.38-0.36-0.57-0.81-0.57-1.35
		v-18.94H47.2c-0.49,0-0.92-0.18-1.27-0.53c-0.36-0.36-0.53-0.81-0.53-1.35c0-0.55,0.18-1,0.53-1.35c0.35-0.36,0.78-0.53,1.27-0.53
		h53.46v-18.94c0-0.55,0.19-1,0.57-1.35c0.38-0.36,0.82-0.53,1.31-0.53c0.49,0,0.92,0.18,1.27,0.53c0.35,0.35,0.53,0.81,0.53,1.35
		v41.65C104.35,399.33,104.17,399.78,103.81,400.14z"/>
	<path class="st2" d="M47.69,444.62c-0.49,0.16-0.96,0.13-1.39-0.08c-0.44-0.22-0.77-0.57-0.98-1.07c-0.06-0.11-0.08-0.33-0.08-0.66
		c0-0.38,0.09-0.74,0.29-1.07c0.19-0.33,0.5-0.55,0.94-0.66l3.77-1.48l10.82-31.16l-14.59-5.49c-0.49-0.16-0.85-0.49-1.07-0.98
		s-0.25-0.96-0.08-1.39c0.22-0.49,0.55-0.86,0.98-1.11c0.44-0.25,0.9-0.26,1.39-0.04l55.43,20.83c0.82,0.27,1.23,0.85,1.23,1.72
		c0,0.93-0.41,1.53-1.23,1.8L47.69,444.62z M54.74,437.98l42.39-15.99L64.5,409.77L54.74,437.98z"/>
	<path class="st2" d="M75.2,491.5c-1.31,2.52-3.2,4.56-5.67,6.12c-2.46,1.56-5.2,2.34-8.21,2.34c-2.19,0-4.24-0.41-6.16-1.23
		c-1.92-0.82-3.59-1.96-5.01-3.41c-1.42-1.45-2.55-3.14-3.37-5.05c-0.82-1.92-1.23-3.97-1.23-6.16l0.08-21.45
		c0-0.55,0.18-1,0.53-1.36c0.35-0.36,0.78-0.54,1.27-0.54h55.43c0.49,0,0.92,0.18,1.27,0.54c0.35,0.36,0.53,0.81,0.53,1.36
		l0.08,21.45c0,2.19-0.41,4.24-1.23,6.16c-0.82,1.92-1.94,3.6-3.36,5.05s-3.08,2.59-5,3.41c-1.91,0.82-3.96,1.23-6.14,1.23
		c-3,0-5.73-0.78-8.19-2.34C78.39,496.06,76.51,494.02,75.2,491.5z M49.25,484.09c0,1.63,0.31,3.19,0.94,4.66
		c0.63,1.47,1.49,2.77,2.58,3.88c1.09,1.12,2.38,1.99,3.85,2.62c1.48,0.63,3.03,0.94,4.67,0.94c1.64,0,3.2-0.31,4.67-0.94
		c1.48-0.63,2.76-1.5,3.85-2.62c1.09-1.12,1.95-2.41,2.58-3.88c0.63-1.47,0.94-3.03,0.94-4.66v-19.54H49.33L49.25,484.09z
		 M101.07,464.54H77.04v19.54c0,1.63,0.31,3.19,0.94,4.66c0.63,1.47,1.49,2.77,2.58,3.88c1.09,1.12,2.38,1.99,3.85,2.62
		c1.48,0.63,3.03,0.94,4.67,0.94c1.64,0,3.2-0.31,4.67-0.94c1.48-0.63,2.76-1.5,3.85-2.62c1.09-1.12,1.95-2.41,2.58-3.88
		c0.63-1.47,0.94-3.03,0.94-4.66L101.07,464.54z"/>
	<path class="st2" d="M45.39,523.86c0-0.54,0.19-0.98,0.57-1.32c0.38-0.35,0.79-0.52,1.23-0.52h55.43c0.44,0,0.85,0.17,1.23,0.52
		c0.38,0.35,0.57,0.79,0.57,1.32c0,0.59-0.19,1.06-0.57,1.4c-0.38,0.35-0.79,0.52-1.23,0.52H47.2c-0.44,0-0.85-0.17-1.23-0.52
		C45.59,524.92,45.39,524.45,45.39,523.86z"/>
	<path class="st2" d="M45.48,586.96v-34.15c0-0.5,0.18-0.94,0.53-1.3c0.35-0.36,0.78-0.54,1.27-0.54h54.85
		c0.44,0,0.85,0.18,1.23,0.54c0.38,0.36,0.57,0.8,0.57,1.3c0,0.56-0.19,1.02-0.57,1.38c-0.38,0.36-0.79,0.54-1.23,0.54H49.17v32.22
		c0,0.44-0.18,0.85-0.55,1.23c-0.36,0.38-0.8,0.57-1.3,0.57c-0.5,0-0.94-0.19-1.3-0.57C45.66,587.8,45.48,587.39,45.48,586.96z"/>
	<path class="st2" d="M45.39,603.4c0-0.54,0.19-0.98,0.57-1.32c0.38-0.35,0.79-0.52,1.23-0.52h55.43c0.44,0,0.85,0.17,1.23,0.52
		c0.38,0.35,0.57,0.79,0.57,1.32c0,0.59-0.19,1.06-0.57,1.4c-0.38,0.35-0.79,0.52-1.23,0.52H47.2c-0.44,0-0.85-0.17-1.23-0.52
		C45.59,604.45,45.39,603.98,45.39,603.4z"/>
	<path class="st2" d="M103.81,668.99c-0.36,0.36-0.78,0.53-1.27,0.53c-0.49,0-0.93-0.18-1.31-0.53c-0.38-0.36-0.57-0.81-0.57-1.35
		V648.7H47.2c-0.49,0-0.92-0.18-1.27-0.53c-0.36-0.36-0.53-0.81-0.53-1.35c0-0.55,0.18-1,0.53-1.35c0.35-0.36,0.78-0.53,1.27-0.53
		h53.46v-18.94c0-0.55,0.19-1,0.57-1.35c0.38-0.36,0.82-0.53,1.31-0.53c0.49,0,0.92,0.18,1.27,0.53c0.35,0.36,0.53,0.81,0.53,1.35
		v41.65C104.35,668.18,104.17,668.63,103.81,668.99z"/>
	<path class="st2" d="M104.02,737.9c-0.33,0.44-0.73,0.7-1.19,0.78c-0.46,0.08-0.92-0.04-1.35-0.37l-29.52-21.89H47.12
		c-0.44,0-0.85-0.2-1.23-0.59c-0.38-0.39-0.57-0.81-0.57-1.26c0-0.56,0.19-1.02,0.57-1.38c0.38-0.36,0.79-0.54,1.23-0.54h24.84
		l29.52-21.97c0.44-0.27,0.89-0.38,1.35-0.33c0.46,0.05,0.86,0.3,1.19,0.74c0.27,0.44,0.38,0.92,0.33,1.44
		c-0.06,0.52-0.3,0.91-0.74,1.19l-28.04,20.87l28.04,20.7c0.44,0.27,0.68,0.67,0.74,1.19C104.4,736.99,104.29,737.47,104.02,737.9z"
		/>
</g>
<g>
	<path class="st2" d="M272.13,336.79v-34.15c0-0.5,0.18-0.94,0.53-1.3c0.35-0.36,0.78-0.54,1.27-0.54h54.85
		c0.44,0,0.85,0.18,1.23,0.54c0.38,0.36,0.57,0.8,0.57,1.3c0,0.56-0.19,1.02-0.57,1.38c-0.38,0.36-0.79,0.54-1.23,0.54h-52.97v32.22
		c0,0.44-0.18,0.85-0.55,1.23c-0.36,0.38-0.8,0.57-1.3,0.57c-0.5,0-0.94-0.19-1.3-0.57C272.31,337.64,272.13,337.23,272.13,336.79z"
		/>
	<path class="st2" d="M272.05,353.23c0-0.54,0.19-0.98,0.57-1.32c0.38-0.35,0.79-0.52,1.23-0.52h55.43c0.44,0,0.85,0.17,1.23,0.52
		c0.38,0.35,0.57,0.79,0.57,1.32c0,0.59-0.19,1.06-0.57,1.4c-0.38,0.35-0.79,0.52-1.23,0.52h-55.43c-0.44,0-0.85-0.17-1.23-0.52
		C272.24,354.29,272.05,353.82,272.05,353.23z"/>
	<path class="st2" d="M272.79,415.99l-0.08-0.08v-0.08h-0.08v-0.08h-0.08v-0.08l-0.08-0.08v-0.08l-0.16-0.16v-0.08v-0.08l-0.08-0.08
		v-0.16v-0.08v-0.08v-0.08v-0.08v-0.08v-0.08v-0.08v-0.08c0-0.06,0.01-0.1,0.04-0.12c0.03-0.03,0.04-0.07,0.04-0.12
		c0-0.06,0.01-0.1,0.04-0.12c0.03-0.03,0.04-0.07,0.04-0.12c0-0.06,0.03-0.08,0.08-0.08v-0.08c0-0.06,0.03-0.08,0.08-0.08v-0.08
		h0.08v-0.08h0.08v-0.08l0.08-0.08l0.08-0.08h0.08c0-0.05,0.03-0.08,0.08-0.08l0.08-0.08h0.08l49.03-28.78h-48.21
		c-0.49,0-0.92-0.18-1.27-0.53c-0.36-0.36-0.53-0.81-0.53-1.35c0-0.55,0.18-1,0.53-1.35c0.35-0.36,0.78-0.53,1.27-0.53h55.1h0.08
		h0.08h0.08h0.08h0.08l0.08,0.08h0.08h0.08h0.08v0.08h0.08c0,0.05,0.03,0.08,0.08,0.08h0.08v0.08h0.08l0.08,0.08
		c0.05,0,0.08,0.03,0.08,0.08l0.08,0.08h0.08v0.08h0.08v0.08c0,0.05,0.03,0.08,0.08,0.08v0.08l0.08,0.08v0.08l0.08,0.08v0.08
		l0.08,0.08v0.08v0.08v0.08v0.08c0.05,0,0.08,0.03,0.08,0.08v0.08v0.08v0.08v0.08v0.08c-0.06,0-0.08,0.03-0.08,0.08v0.08v0.08v0.08
		c-0.06,0-0.08,0.03-0.08,0.08v0.08c0,0.05-0.03,0.08-0.08,0.08v0.08v0.08h-0.08v0.08l-0.08,0.08l-0.08,0.08l-0.08,0.08l-0.08,0.08
		l-0.08,0.08l-0.08,0.08h-0.08c0,0.05-0.03,0.08-0.08,0.08l-49.11,28.78h48.29c0.44,0,0.85,0.18,1.23,0.53
		c0.38,0.35,0.57,0.81,0.57,1.35c0,0.55-0.19,1-0.57,1.35c-0.38,0.36-0.79,0.53-1.23,0.53h-55.18h-0.08h-0.08h-0.08h-0.08
		c-0.05,0-0.08-0.03-0.08-0.08h-0.08h-0.08c-0.05,0-0.08-0.03-0.08-0.08h-0.08c-0.05,0-0.08-0.03-0.08-0.08h-0.08l-0.08-0.08
		l-0.08-0.08h-0.08C272.87,416.02,272.84,415.99,272.79,415.99z"/>
	<path class="st2" d="M274.22,480.03c-0.46,0.05-0.92-0.08-1.35-0.41c-0.49-0.44-0.74-0.93-0.74-1.48c0-0.38,0.14-0.77,0.41-1.15
		l25.58-33.21h-24.11c-0.55,0-1-0.18-1.35-0.53c-0.36-0.36-0.53-0.81-0.53-1.35c0-0.55,0.18-1,0.53-1.35
		c0.35-0.36,0.81-0.53,1.35-0.53h56c0.49,0,0.92,0.18,1.27,0.53c0.35,0.36,0.53,0.81,0.53,1.35c0,0.55-0.18,1-0.53,1.35
		c-0.36,0.35-0.78,0.53-1.27,0.53h-24.27L331.41,477c0.33,0.44,0.46,0.9,0.41,1.39s-0.3,0.9-0.74,1.23
		c-0.44,0.33-0.89,0.46-1.35,0.41c-0.46-0.05-0.86-0.3-1.19-0.74l-26.57-34.36l-26.57,34.36
		C275.08,479.73,274.68,479.98,274.22,480.03z"/>
</g>
<rect x="132.03" y="300.04" class="st3" width="4.93" height="256.21"/>
<rect x="248.84" y="299.57" class="st3" width="5.01" height="118.25"/>
</svg>
