<?xml version="1.0" encoding="utf-8"?>
<!-- Generator: Adobe Illustrator 24.1.2, SVG Export Plug-In . SVG Version: 6.00 Build 0)  -->
<svg version="1.1" id="Layer_1" xmlns="http://www.w3.org/2000/svg" xmlns:xlink="http://www.w3.org/1999/xlink" x="0px" y="0px"
	 viewBox="0 0 1165 391" style="enable-background:new 0 0 1165 391;" xml:space="preserve">
<style type="text/css">
	.st0{fill:#FFC74E;}
	.st1{fill:#FFFFFF;}
</style>
<g>
</g>
<rect id="BOX" x="9" y="7.73" class="st0" width="37.39" height="376.27"/>
<g>
	<path class="st1" d="M92.64,70.44h8.74v94.85h-8.74V70.44z"/>
	<path class="st1" d="M121.41,165.28V70.44h1.89l58.24,72.59V70.44h8.62v94.85h-2.01L130.5,93.59v71.69H121.41z"/>
	<path class="st1" d="M211.36,165.03V70.18h18.13c13.11,0,22.64,1.15,28.59,3.45c8.47,3.2,15.09,8.77,19.87,16.72
		c4.78,7.95,7.18,17.43,7.18,28.43c0,9.47-1.9,17.82-5.7,25.07c-3.8,7.25-8.72,12.59-14.77,16.02c-6.04,3.43-14.52,5.15-25.43,5.15
		H211.36z M219.75,156.01h10.1c12.09,0,20.49-0.81,25.22-2.43c6.58-2.3,11.75-6.47,15.53-12.5c3.78-6.03,5.67-13.42,5.67-22.16
		c0-9.17-2.04-16.99-6.11-23.47c-4.08-6.48-9.77-10.91-17.1-13.3c-5.51-1.83-14.55-2.75-27.11-2.75h-6.2V156.01z"/>
	<path class="st1" d="M302.02,70.44h50.2v9.34h-41.46v29.67h25.28v9.21h-25.28v37.22h41.11v9.4h-49.85V70.44z"/>
	<path class="st1" d="M369.41,70.18h17.42c10.04,0,16.79,0.47,20.26,1.41c5.04,1.37,9.13,4.12,12.29,8.25
		c3.15,4.14,4.73,9.36,4.73,15.67c0,6.27-1.55,11.46-4.64,15.57c-3.09,4.12-7.35,6.88-12.79,8.28c-3.98,1.02-11.4,1.54-22.27,1.54
		h-6.26v44.13h-8.74V70.18z M378.15,79.39v32.23l14.88,0.19c5.95,0,10.31-0.59,13.08-1.76c2.78-1.17,4.96-3.09,6.56-5.76
		c1.59-2.66,2.39-5.6,2.39-8.79c0-3.24-0.8-6.18-2.39-8.83c-1.59-2.64-3.69-4.52-6.29-5.63c-2.6-1.11-6.85-1.66-12.76-1.66H378.15z"
		/>
	<path class="st1" d="M441.53,70.44h50.2v9.34h-41.46v29.67h25.28v9.21h-25.28v37.22h41.11v9.4h-49.85V70.44z"/>
	<path class="st1" d="M509.04,165.28V70.44h1.89l58.24,72.59V70.44h8.62v94.85h-2.01l-57.65-71.69v71.69H509.04z"/>
	<path class="st1" d="M598.99,165.03V70.18h18.13c13.11,0,22.64,1.15,28.59,3.45c8.47,3.2,15.09,8.77,19.87,16.72
		c4.78,7.95,7.18,17.43,7.18,28.43c0,9.47-1.9,17.82-5.7,25.07c-3.8,7.25-8.72,12.59-14.77,16.02c-6.04,3.43-14.52,5.15-25.43,5.15
		H598.99z M607.38,156.01h10.1c12.09,0,20.49-0.81,25.22-2.43c6.58-2.3,11.75-6.47,15.53-12.5c3.78-6.03,5.67-13.42,5.67-22.16
		c0-9.17-2.04-16.99-6.11-23.47c-4.08-6.48-9.77-10.91-17.1-13.3c-5.51-1.83-14.55-2.75-27.11-2.75h-6.2V156.01z"/>
	<path class="st1" d="M689.65,70.44h50.2v9.34h-41.46v29.67h25.28v9.21h-25.28v37.22h41.11v9.4h-49.85V70.44z"/>
	<path class="st1" d="M757.16,165.28V70.44h1.89l58.24,72.59V70.44h8.62v94.85h-2.01l-57.65-71.69v71.69H757.16z"/>
	<path class="st1" d="M838.49,79.65v-9.21h48.08v9.21h-19.61v85.64h-8.92V79.65H838.49z"/>
</g>
<g>
	<path class="st1" d="M121.51,315.84c-5.35,0-10.48-1.12-15.4-3.36c-4.78-2.24-8.95-5.29-12.51-9.15
		c-3.57-3.86-6.38-8.38-8.45-13.55c-2.07-5.4-3.1-10.96-3.1-16.67c0-5.71,1.03-11.23,3.1-16.56c2.07-5.17,4.88-9.69,8.45-13.55
		c3.78-4.09,7.95-7.14,12.51-9.15c4.92-2.24,10.05-3.36,15.4-3.36c5.06,0,9.93,0.98,14.6,2.95c4.67,1.97,8.86,4.85,12.57,8.63
		c0.5,0.54,0.75,1.18,0.75,1.91c0,0.73-0.25,1.37-0.75,1.91c-0.43,0.54-0.98,0.81-1.66,0.81c-0.68,0-1.27-0.23-1.76-0.69
		c-3.21-3.4-6.84-5.96-10.91-7.7c-4.06-1.74-8.34-2.61-12.83-2.61c-4.78,0-9.25,0.99-13.42,2.96c-4.17,1.98-7.82,4.65-10.96,8.02
		c-3.14,3.37-5.61,7.34-7.43,11.91c-1.82,4.57-2.73,9.41-2.73,14.52c0,5.19,0.91,10.05,2.73,14.58c1.82,4.53,4.29,8.5,7.43,11.9
		c3.14,3.41,6.79,6.1,10.96,8.07c4.17,1.98,8.64,2.96,13.42,2.96c4.13,0,8.13-0.79,11.98-2.37c3.85-1.58,7.34-3.84,10.48-6.77
		c0.57-0.46,1.19-0.67,1.87-0.64c0.68,0.04,1.23,0.33,1.66,0.87c0.43,0.62,0.62,1.29,0.59,2.03c-0.04,0.73-0.3,1.33-0.8,1.79
		c-3.64,3.4-7.66,5.96-12.08,7.7C130.77,314.97,126.21,315.84,121.51,315.84z"/>
	<path class="st1" d="M223.47,313.12c-0.18,0.66-0.55,1.18-1.12,1.56c-0.43,0.23-0.86,0.35-1.28,0.35c-1,0-1.71-0.42-2.14-1.27
		c-1.42-2.55-2.68-4.79-3.79-6.72c-1.1-1.93-2.33-4.05-3.68-6.37c-1.35-2.32-2.67-4.59-3.94-6.83c-1.71-2.93-3.33-5.21-4.85-6.83
		c-1.53-1.62-2.88-2.84-4.05-3.65c-1.17-0.81-2.13-1.29-2.88-1.45c-0.75-0.15-1.23-0.23-1.44-0.23c-0.57,0.08-1.16,0.14-1.76,0.17
		c-0.6,0.04-1.19,0.06-1.76,0.06L180,282.03v30.45c0,0.7-0.23,1.29-0.7,1.79c-0.46,0.5-1.05,0.75-1.76,0.75
		c-0.71,0-1.3-0.25-1.76-0.75c-0.46-0.5-0.7-1.1-0.7-1.79v-33v-45.16v-0.12c0-0.54,0.18-1,0.53-1.39c0-0.08,0.04-0.12,0.11-0.12
		v-0.12h0.11l0.21-0.23c0.5-0.39,0.99-0.58,1.49-0.58l13.23,0.23c3.77,0,7.38,0.6,10.83,1.79c3.45,1.2,6.52,2.95,9.23,5.26
		c2.56,2.24,4.66,4.9,6.29,7.98c1.56,3.08,2.35,6.36,2.35,9.83s-0.78,6.75-2.35,9.83c-1.64,3.24-3.73,5.9-6.29,7.98
		c-1.21,1.08-2.53,2.04-3.95,2.89s-2.92,1.58-4.48,2.2c1.35,1.08,2.81,2.51,4.37,4.29s3.2,4.14,4.91,7.07
		c1.35,2.24,2.7,4.52,4.05,6.84c1.35,2.32,2.58,4.46,3.68,6.44c1.1,1.97,2.37,4.23,3.79,6.78
		C223.56,311.82,223.65,312.46,223.47,313.12z M190.8,276.7c0.43,0,0.87-0.02,1.34-0.06c0.46-0.04,0.91-0.1,1.34-0.17h0.53
		c2.85-0.31,5.54-1.06,8.07-2.25c2.53-1.19,4.71-2.65,6.52-4.39c1.82-1.73,3.26-3.71,4.33-5.95c1.07-2.23,1.6-4.58,1.6-7.04
		c0-2.69-0.63-5.23-1.87-7.62c-1.25-2.39-2.94-4.47-5.08-6.23c-2.14-1.77-4.65-3.18-7.54-4.21c-2.89-1.04-5.97-1.56-9.25-1.56h-0.11
		L180,236.98v39.83l10.69-0.12H190.8z"/>
	<path class="st1" d="M252.5,269.75v40.3h41.71c0.71,0,1.28,0.27,1.71,0.81c0.43,0.54,0.64,1.12,0.64,1.74
		c0,0.77-0.21,1.41-0.64,1.91c-0.43,0.5-1,0.75-1.71,0.75h-43.95c-0.71,0-1.3-0.25-1.76-0.75c-0.46-0.5-0.7-1.14-0.7-1.91v-78.63
		c0-0.77,0.23-1.41,0.7-1.91c0.46-0.5,1.05-0.75,1.76-0.75h43.95c0.71,0,1.28,0.25,1.71,0.75c0.43,0.5,0.64,1.14,0.64,1.91
		c0,0.69-0.21,1.29-0.64,1.79c-0.43,0.5-1,0.75-1.71,0.75H252.5v28.02h41.71c0.71,0,1.28,0.25,1.71,0.75
		c0.43,0.5,0.64,1.1,0.64,1.79c0,0.77-0.21,1.41-0.64,1.91c-0.43,0.5-1,0.75-1.71,0.75H252.5z"/>
	<path class="st1" d="M372.92,312.13c0.21,0.69,0.18,1.35-0.11,1.97c-0.29,0.62-0.75,1.08-1.39,1.39c-0.14,0.08-0.43,0.12-0.86,0.12
		c-0.5,0-0.96-0.13-1.39-0.41c-0.43-0.27-0.71-0.71-0.86-1.33l-1.93-5.33l-40.64-15.29l-7.16,20.61c-0.21,0.7-0.64,1.2-1.28,1.51
		s-1.25,0.35-1.82,0.12c-0.64-0.31-1.12-0.77-1.44-1.39c-0.32-0.62-0.34-1.27-0.05-1.97l27.16-78.28c0.36-1.16,1.1-1.74,2.25-1.74
		c1.21,0,2,0.58,2.35,1.74L372.92,312.13z M364.25,302.17l-20.85-59.87l-15.93,46.09L364.25,302.17z"/>
	<path class="st1" d="M440.87,232.87c0.46,0.5,0.7,1.1,0.7,1.79s-0.23,1.31-0.7,1.85c-0.46,0.54-1.05,0.81-1.76,0.81h-24.7v75.5
		c0,0.7-0.23,1.29-0.7,1.79c-0.46,0.5-1.05,0.75-1.76,0.75c-0.71,0-1.3-0.25-1.76-0.75c-0.46-0.5-0.69-1.1-0.69-1.79v-75.5h-24.7
		c-0.71,0-1.3-0.27-1.76-0.81c-0.46-0.54-0.69-1.16-0.69-1.85s0.23-1.29,0.69-1.79c0.46-0.5,1.05-0.75,1.76-0.75h54.32
		C439.82,232.12,440.41,232.37,440.87,232.87z"/>
	<path class="st1" d="M473.17,315.38c-0.7,0-1.27-0.27-1.73-0.81c-0.45-0.54-0.68-1.12-0.68-1.74v-78.28c0-0.62,0.23-1.2,0.68-1.74
		c0.45-0.54,1.03-0.81,1.73-0.81c0.77,0,1.38,0.27,1.83,0.81c0.45,0.54,0.68,1.12,0.68,1.74v78.28c0,0.62-0.23,1.2-0.68,1.74
		C474.55,315.11,473.94,315.38,473.17,315.38z"/>
	<path class="st1" d="M528.72,316.53c-1.07,0-1.85-0.58-2.35-1.74l-27.16-80.25c-0.21-0.62-0.18-1.27,0.11-1.97
		c0.28-0.69,0.75-1.16,1.39-1.39s1.26-0.19,1.87,0.12c0.6,0.31,1.05,0.81,1.34,1.51l24.81,73.3l24.81-73.3
		c0.28-0.69,0.73-1.2,1.34-1.51c0.6-0.31,1.23-0.35,1.87-0.12s1.1,0.69,1.39,1.39c0.28,0.69,0.32,1.35,0.11,1.97l-27.16,80.25
		C530.58,315.95,529.79,316.53,528.72,316.53z"/>
	<path class="st1" d="M584.01,269.75v40.3h41.71c0.71,0,1.28,0.27,1.71,0.81c0.43,0.54,0.64,1.12,0.64,1.74
		c0,0.77-0.21,1.41-0.64,1.91c-0.43,0.5-1,0.75-1.71,0.75h-43.95c-0.71,0-1.3-0.25-1.76-0.75c-0.46-0.5-0.7-1.14-0.7-1.91v-78.63
		c0-0.77,0.23-1.41,0.7-1.91c0.46-0.5,1.05-0.75,1.76-0.75h43.95c0.71,0,1.28,0.25,1.71,0.75c0.43,0.5,0.64,1.14,0.64,1.91
		c0,0.69-0.21,1.29-0.64,1.79c-0.43,0.5-1,0.75-1.71,0.75h-41.71v28.02h41.71c0.71,0,1.28,0.25,1.71,0.75
		c0.43,0.5,0.64,1.1,0.64,1.79c0,0.77-0.21,1.41-0.64,1.91c-0.43,0.5-1,0.75-1.71,0.75H584.01z"/>
	<path class="st1" d="M751.15,312.13c0.21,0.69,0.18,1.35-0.11,1.97c-0.29,0.62-0.75,1.08-1.39,1.39c-0.14,0.08-0.43,0.12-0.86,0.12
		c-0.5,0-0.96-0.13-1.39-0.41c-0.43-0.27-0.71-0.71-0.86-1.33l-1.93-5.33l-40.64-15.29l-7.16,20.61c-0.21,0.7-0.64,1.2-1.28,1.51
		s-1.25,0.35-1.82,0.12c-0.64-0.31-1.12-0.77-1.44-1.39c-0.32-0.62-0.34-1.27-0.05-1.97l27.16-78.28c0.36-1.16,1.1-1.74,2.25-1.74
		c1.21,0,2,0.58,2.35,1.74L751.15,312.13z M742.49,302.17l-20.85-59.87l-15.93,46.09L742.49,302.17z"/>
	<path class="st1" d="M801.2,316.76c-5.28,0-10.41-1.12-15.4-3.36c-4.78-2.24-8.95-5.29-12.51-9.15c-3.57-3.86-6.38-8.38-8.45-13.55
		c-2.07-5.33-3.1-10.84-3.1-16.56c0-5.71,1.03-11.27,3.1-16.67c2.07-5.17,4.88-9.69,8.45-13.55c3.56-3.86,7.74-6.91,12.51-9.15
		c4.99-2.24,10.12-3.36,15.4-3.36c5.13,0,10.02,0.98,14.65,2.95c4.63,1.97,8.8,4.88,12.51,8.74c0.5,0.46,0.75,1.06,0.75,1.79
		c0,0.73-0.25,1.37-0.75,1.91c-0.43,0.54-0.98,0.83-1.66,0.87c-0.68,0.04-1.27-0.21-1.76-0.75c-3.21-3.32-6.84-5.87-10.91-7.64
		c-4.06-1.77-8.34-2.66-12.83-2.66c-4.78,0-9.25,0.99-13.42,2.96c-4.17,1.98-7.83,4.67-10.96,8.07c-3.14,3.41-5.61,7.38-7.43,11.91
		c-1.82,4.53-2.73,9.39-2.73,14.58c0,5.11,0.91,9.95,2.73,14.52c1.82,4.57,4.29,8.54,7.43,11.91c3.14,3.37,6.79,6.04,10.96,8.01
		c4.17,1.98,8.64,2.96,13.42,2.96c3.99,0,7.82-0.72,11.5-2.15c3.67-1.43,7.07-3.5,10.21-6.21v-26.38h-27.48
		c-0.71,0-1.3-0.26-1.76-0.79c-0.46-0.53-0.7-1.13-0.7-1.81c0-0.75,0.23-1.38,0.7-1.87c0.46-0.49,1.05-0.74,1.76-0.74h29.94
		c0.64,0,1.21,0.25,1.71,0.75c0.5,0.5,0.75,1.14,0.75,1.91v30.15c0,0.85-0.29,1.5-0.86,1.96c-3.64,3.39-7.66,5.97-12.08,7.74
		C810.46,315.88,805.9,316.76,801.2,316.76z"/>
	<path class="st1" d="M860.97,269.75v40.3h41.71c0.71,0,1.28,0.27,1.71,0.81c0.43,0.54,0.64,1.12,0.64,1.74
		c0,0.77-0.21,1.41-0.64,1.91c-0.43,0.5-1,0.75-1.71,0.75h-43.95c-0.71,0-1.3-0.25-1.76-0.75c-0.46-0.5-0.69-1.14-0.69-1.91v-78.63
		c0-0.77,0.23-1.41,0.69-1.91c0.46-0.5,1.05-0.75,1.76-0.75h43.95c0.71,0,1.28,0.25,1.71,0.75c0.43,0.5,0.64,1.14,0.64,1.91
		c0,0.69-0.21,1.29-0.64,1.79c-0.43,0.5-1,0.75-1.71,0.75h-41.71v28.02h41.71c0.71,0,1.28,0.25,1.71,0.75
		c0.43,0.5,0.64,1.1,0.64,1.79c0,0.77-0.21,1.41-0.64,1.91c-0.43,0.5-1,0.75-1.71,0.75H860.97z"/>
	<path class="st1" d="M978.07,314.33l-0.11,0.12h-0.11v0.12h-0.11v0.12h-0.11l-0.11,0.12h-0.11l-0.21,0.23h-0.11H977l-0.11,0.12
		h-0.21h-0.11h-0.11h-0.11h-0.11h-0.11h-0.11h-0.11h-0.11c-0.07,0-0.13-0.02-0.16-0.06c-0.04-0.04-0.09-0.06-0.16-0.06
		c-0.07,0-0.13-0.02-0.16-0.06c-0.04-0.04-0.09-0.06-0.16-0.06c-0.07,0-0.11-0.04-0.11-0.12h-0.11c-0.07,0-0.11-0.04-0.11-0.12
		h-0.11v-0.12h-0.11v-0.12h-0.11l-0.11-0.12l-0.11-0.12v-0.12c-0.07,0-0.11-0.04-0.11-0.12l-0.11-0.12v-0.12l-37.54-69.25v68.09
		c0,0.7-0.23,1.29-0.7,1.79c-0.46,0.5-1.05,0.75-1.76,0.75c-0.71,0-1.3-0.25-1.76-0.75c-0.46-0.5-0.7-1.1-0.7-1.79v-77.81v-0.12
		v-0.12v-0.12v-0.12v-0.12l0.11-0.12v-0.12v-0.12v-0.12h0.11v-0.12c0.07,0,0.11-0.04,0.11-0.12v-0.12h0.11v-0.12l0.11-0.12
		c0-0.08,0.04-0.12,0.11-0.12l0.11-0.12v-0.12h0.11v-0.12h0.11c0.07,0,0.11-0.04,0.11-0.12h0.11l0.11-0.12h0.11l0.11-0.12h0.11
		l0.11-0.12h0.11h0.11h0.11h0.11c0-0.08,0.04-0.12,0.11-0.12h0.11h0.11h0.11h0.11h0.11c0,0.08,0.04,0.12,0.11,0.12h0.11h0.11h0.11
		c0,0.08,0.04,0.12,0.11,0.12h0.11c0.07,0,0.11,0.04,0.11,0.12h0.11h0.11v0.12h0.11l0.11,0.12l0.11,0.12l0.11,0.12l0.11,0.12
		l0.11,0.12l0.11,0.12v0.12c0.07,0,0.11,0.04,0.11,0.12l37.54,69.36v-68.2c0-0.62,0.23-1.2,0.69-1.74c0.46-0.54,1.05-0.81,1.76-0.81
		c0.71,0,1.3,0.27,1.76,0.81c0.46,0.54,0.7,1.12,0.7,1.74v77.93v0.12v0.12v0.12v0.12c0,0.08-0.04,0.12-0.11,0.12v0.12v0.12
		c0,0.08-0.04,0.12-0.11,0.12v0.12c0,0.08-0.04,0.12-0.11,0.12v0.12l-0.11,0.12l-0.11,0.12v0.12
		C978.11,314.22,978.07,314.26,978.07,314.33z"/>
	<path class="st1" d="M1043.41,315.84c-5.35,0-10.48-1.12-15.4-3.36c-4.78-2.24-8.95-5.29-12.51-9.15
		c-3.57-3.86-6.38-8.38-8.45-13.55c-2.07-5.4-3.1-10.96-3.1-16.67c0-5.71,1.03-11.23,3.1-16.56c2.07-5.17,4.88-9.69,8.45-13.55
		c3.78-4.09,7.95-7.14,12.51-9.15c4.92-2.24,10.05-3.36,15.4-3.36c5.06,0,9.93,0.98,14.6,2.95c4.67,1.97,8.86,4.85,12.57,8.63
		c0.5,0.54,0.75,1.18,0.75,1.91c0,0.73-0.25,1.37-0.75,1.91c-0.43,0.54-0.98,0.81-1.66,0.81c-0.68,0-1.27-0.23-1.76-0.69
		c-3.21-3.4-6.84-5.96-10.91-7.7s-8.34-2.61-12.83-2.61c-4.78,0-9.25,0.99-13.42,2.96c-4.17,1.98-7.83,4.65-10.96,8.02
		c-3.14,3.37-5.61,7.34-7.43,11.91c-1.82,4.57-2.73,9.41-2.73,14.52c0,5.19,0.91,10.05,2.73,14.58c1.82,4.53,4.29,8.5,7.43,11.9
		c3.14,3.41,6.79,6.1,10.96,8.07c4.17,1.98,8.64,2.96,13.42,2.96c4.13,0,8.13-0.79,11.98-2.37c3.85-1.58,7.34-3.84,10.48-6.77
		c0.57-0.46,1.19-0.67,1.87-0.64c0.68,0.04,1.23,0.33,1.66,0.87c0.43,0.62,0.62,1.29,0.59,2.03c-0.04,0.73-0.3,1.33-0.8,1.79
		c-3.64,3.4-7.66,5.96-12.08,7.7C1052.67,314.97,1048.11,315.84,1043.41,315.84z"/>
	<path class="st1" d="M1158.58,232.58c0.57,0.46,0.91,1.02,1.02,1.68c0.11,0.66-0.05,1.29-0.48,1.91l-28.55,41.69v35.09
		c0,0.62-0.26,1.2-0.77,1.74c-0.51,0.54-1.06,0.81-1.64,0.81c-0.73,0-1.33-0.27-1.8-0.81c-0.47-0.54-0.71-1.12-0.71-1.74v-35.09
		l-28.66-41.69c-0.36-0.62-0.5-1.25-0.43-1.91c0.07-0.66,0.39-1.22,0.96-1.68c0.57-0.39,1.19-0.54,1.87-0.46
		c0.68,0.08,1.19,0.43,1.55,1.04l27.22,39.6l27-39.6c0.36-0.62,0.87-0.96,1.55-1.04C1157.38,232.04,1158.01,232.2,1158.58,232.58z"
		/>
</g>
<g>
</g>
<g>
</g>
<g>
</g>
<g>
</g>
<g>
</g>
<g>
</g>
<g>
</g>
<g>
</g>
<g>
</g>
<g>
</g>
<g>
</g>
<g>
</g>
<g>
</g>
<g>
</g>
<g>
</g>
</svg>
