<?xml version="1.0" encoding="utf-8"?>
<!-- Generator: Adobe Illustrator 24.1.2, SVG Export Plug-In . SVG Version: 6.00 Build 0)  -->
<svg version="1.1" id="Layer_1" xmlns="http://www.w3.org/2000/svg" xmlns:xlink="http://www.w3.org/1999/xlink" x="0px" y="0px"
	 viewBox="0 0 107 467" style="enable-background:new 0 0 107 467;" xml:space="preserve">
<style type="text/css">
	.st0{fill:#FFC74E;}
	.st1{fill:#FFFFFF;}
</style>
<rect x="-141.19" y="229.98" transform="matrix(-1.836970e-16 1 -1 -1.836970e-16 320.3835 146.2764)" class="st0" width="456.49" height="6.71"/>
<g>
	<path class="st1" d="M14,279.34h5.12v12.58h38.67v5.66H19.12v12.61H14V279.34z"/>
	<path class="st1" d="M14.03,244.33v-5.66h43.76v5.66H37.86v24.88h19.93v5.63H14.03v-5.63h18.71v-24.88H14.03z"/>
	<path class="st1" d="M52.67,225.8v-26.5h5.12v32.16H14v-28.13h5.12v22.47h14.21v-22.47h5.12v22.47H52.67z"/>
	<path class="st1" d="M14,150.71h5.12v12.58h38.67v5.66H19.12v12.61H14V150.71z"/>
	<path class="st1" d="M52.67,140.54v-26.5h5.12v32.16H14v-28.13h5.12v22.47h14.21v-22.47h5.12v22.47H52.67z"/>
	<path class="st1" d="M43.58,98.78L57.79,107v6.14L12.75,87.08l45.05-25.87v6.59l-14.21,8.15V98.78z M23.79,87.29l14.67,8.48V78.87
		L23.79,87.29z"/>
	<path class="st1" d="M57.79,6.82v5.66H25.16c5.97,6.98,12.3,13.77,18.99,20.37l-18.42,20h32.06v5.66H12.75L36.8,32.48l-24-25.66
		H57.79z"/>
</g>
<g>
</g>
<g>
</g>
<g>
</g>
<g>
</g>
<g>
</g>
<g>
</g>
<g>
</g>
<g>
</g>
<g>
</g>
<g>
</g>
<g>
</g>
<g>
</g>
<g>
</g>
<g>
</g>
<g>
</g>
</svg>
