<?xml version="1.0" encoding="utf-8"?>
<!-- Generator: Adobe Illustrator 24.1.2, SVG Export Plug-In . SVG Version: 6.00 Build 0)  -->
<svg version="1.1" id="Layer_1" xmlns="http://www.w3.org/2000/svg" xmlns:xlink="http://www.w3.org/1999/xlink" x="0px" y="0px"
	 viewBox="0 0 800 800" style="enable-background:new 0 0 800 800;" xml:space="preserve">
<style type="text/css">
	.st0{fill:#FFC74E;}
	.st1{fill:#FFFFFF;}
</style>
<rect x="212.76" y="378.35" transform="matrix(-1.836970e-16 1 -1 -1.836970e-16 822.7138 -59.3016)" class="st0" width="456.49" height="6.71"/>
<g>
	<path class="st1" d="M367.96,427.72h5.12v12.58h38.67v5.66h-38.67v12.61h-5.12V427.72z"/>
	<path class="st1" d="M367.99,392.7v-5.66h43.76v5.66h-19.93v24.88h19.93v5.63h-43.76v-5.63h18.71V392.7H367.99z"/>
	<path class="st1" d="M406.63,374.17v-26.5h5.12v32.16h-43.79V351.7h5.12v22.47h14.21V351.7h5.12v22.47H406.63z"/>
	<path class="st1" d="M367.96,299.08h5.12v12.58h38.67v5.66h-38.67v12.61h-5.12V299.08z"/>
	<path class="st1" d="M406.63,288.92v-26.5h5.12v32.16h-43.79v-28.13h5.12v22.47h14.21v-22.47h5.12v22.47H406.63z"/>
	<path class="st1" d="M397.53,247.16l14.21,8.21v6.14l-45.05-26.05l45.05-25.87v6.59l-14.21,8.15V247.16z M377.74,235.67l14.67,8.48
		v-16.91L377.74,235.67z"/>
	<path class="st1" d="M411.75,155.2v5.66h-32.63c5.97,6.98,12.3,13.77,18.99,20.37l-18.42,20h32.06v5.66H366.7l24.05-26.02
		l-24-25.66H411.75z"/>
</g>
<g>
</g>
<g>
</g>
<g>
</g>
<g>
</g>
<g>
</g>
<g>
</g>
<g>
</g>
<g>
</g>
<g>
</g>
<g>
</g>
<g>
</g>
<g>
</g>
<g>
</g>
<g>
</g>
<g>
</g>
</svg>
