<?xml version="1.0" encoding="utf-8"?>
<!-- Generator: Adobe Illustrator 24.1.2, SVG Export Plug-In . SVG Version: 6.00 Build 0)  -->
<svg version="1.1" id="Layer_1" xmlns="http://www.w3.org/2000/svg" xmlns:xlink="http://www.w3.org/1999/xlink" x="0px" y="0px"
	 viewBox="0 0 800 800" style="enable-background:new 0 0 800 800;" xml:space="preserve">
<style type="text/css">
	.st0{fill:none;}
	.st1{stroke:#FFFFFF;stroke-width:4;stroke-miterlimit:10;}
	.st2{fill:#FFFFFF;}
	.st3{fill:#FFC74E;}
</style>
<g id="LOGO">
	<g>
		<rect x="213.85" y="268.51" class="st0" width="448.15" height="166.81"/>
		<path class="st1" d="M220.7,383.12h-4.38l89.42-97.36h3.29v97.63h-3.01v-92.16L220.7,383.12z"/>
		<path class="st1" d="M330.11,285.76l33.82,27.25c0.18,0.18,0.36,0.32,0.55,0.41c0.46,0.18,0.73,0.23,0.82,0.14l33-27.8h3.29v97.63
			h-3.29v-92.43l-33.55,27.52l-34.37-27.52h-0.27v92.43h-3.29v-97.63H330.11z"/>
		<path class="st1" d="M459.1,357.79h-0.27c-1.64,0.27-3.31,0.57-5,0.89c-1.69,0.32-3.4,0.48-5.13,0.48v-3.29
			c5.75-0.36,10.98-1.83,15.68-4.38c4.7-2.56,8.51-5.89,11.43-10c2.92-4.11,4.77-8.79,5.55-14.04c0.77-5.25,0.16-10.7-1.85-16.36
			c-1.83-4.84-4.68-9.06-8.56-12.67c-3.88-3.61-8.28-6.09-13.21-7.46c-0.27,0-0.87-0.14-1.78-0.41c-0.91-0.27-1.51-0.41-1.78-0.41
			c-0.18,0-0.5-0.04-0.96-0.14c-0.46-0.09-0.78-0.14-0.96-0.14h-29.44v93.25h-3.56v-96.81h31.08c3.56,0,7.1,0.66,10.61,1.99
			c3.51,1.32,6.64,3.04,9.38,5.13c4.11,3.01,7.37,6.69,9.79,11.02c2.42,4.34,3.92,8.9,4.52,13.69c0.59,4.79,0.25,9.61-1.03,14.45
			c-1.28,4.84-3.56,9.22-6.85,13.15c-1.92,2.38-4.06,4.41-6.44,6.09c-2.38,1.69-4.93,3.22-7.67,4.59v0.27l19.86,26.43h-4.11
			L459.1,357.79z"/>
		<path class="st1" d="M561.66,285.76v3.01h-57.24v37.66h23.69v3.56h-23.69v49.84h55.6v3.29h-58.88v-97.36H561.66z"/>
	</g>
</g>
<g>
	<path class="st2" d="M264.23,403.28c0-0.25,0.1-0.47,0.29-0.66c0.19-0.19,0.4-0.29,0.62-0.29h28.09c0.25,0,0.47,0.1,0.66,0.29
		c0.19,0.19,0.29,0.41,0.29,0.66l-0.13,7.1c0,1.02-0.1,2.02-0.29,2.99s-0.48,1.94-0.87,2.91c-0.39,0.89-0.84,1.73-1.37,2.53
		s-1.13,1.55-1.82,2.24c-1.38,1.41-2.96,2.49-4.72,3.24c-1.85,0.8-3.78,1.2-5.8,1.2c-1.99,0-3.91-0.4-5.76-1.2
		c-1.8-0.75-3.37-1.83-4.72-3.24c-0.69-0.69-1.3-1.44-1.82-2.24c-0.53-0.8-0.98-1.65-1.37-2.53c-0.39-0.97-0.68-1.94-0.87-2.91
		s-0.29-1.96-0.29-2.99L264.23,403.28z M292.32,404.23h-26.19l0.08,6.16c0,1.82,0.34,3.53,1.02,5.13c0.68,1.6,1.61,3,2.8,4.2
		c1.19,1.2,2.57,2.14,4.13,2.83c1.56,0.69,3.24,1.03,5.04,1.03c1.8,0,3.49-0.34,5.06-1.03c1.58-0.69,2.96-1.63,4.15-2.83
		c1.19-1.2,2.12-2.6,2.8-4.2c0.68-1.6,1.02-3.31,1.02-5.13L292.32,404.23z"/>
	<path class="st2" d="M280.47,436.63h-14.42v16.16c0,0.28-0.1,0.5-0.29,0.66s-0.4,0.25-0.62,0.25c-0.28,0-0.5-0.08-0.68-0.25
		s-0.27-0.39-0.27-0.66v-17.03c0-0.28,0.09-0.5,0.27-0.68s0.41-0.27,0.68-0.27h28.13c0.28,0,0.5,0.09,0.68,0.27s0.27,0.41,0.27,0.68
		v17.03c0,0.28-0.09,0.5-0.27,0.66s-0.41,0.25-0.68,0.25c-0.25,0-0.46-0.08-0.64-0.25c-0.18-0.17-0.27-0.39-0.27-0.66v-16.16h-10.03
		v16.16c0,0.28-0.09,0.5-0.27,0.66s-0.39,0.25-0.64,0.25c-0.28,0-0.5-0.08-0.68-0.25s-0.27-0.39-0.27-0.66V436.63z"/>
	<path class="st2" d="M264.11,472.22c0-1.1,0.1-2.13,0.29-3.07c0.19-0.94,0.47-1.81,0.83-2.61c0.69-1.3,1.56-2.31,2.61-3.02
		c0.44-0.33,0.89-0.58,1.35-0.75c0.46-0.17,0.86-0.29,1.22-0.37c0.36-0.08,0.65-0.13,0.87-0.14c0.22-0.01,0.34-0.02,0.37-0.02v1.91
		c-0.3,0-0.61,0.04-0.91,0.12c-0.28,0.06-0.59,0.15-0.93,0.29c-0.35,0.14-0.68,0.33-1.01,0.58c-1.88,1.33-2.82,3.69-2.82,7.08
		s0.99,5.76,2.98,7.08c0.72,0.47,1.39,0.76,2.03,0.87c0.63,0.11,0.98,0.17,1.04,0.17c0.03,0,0.13-0.01,0.31-0.02
		c0.18-0.01,0.41-0.06,0.68-0.13c0.28-0.07,0.59-0.17,0.95-0.31c0.36-0.14,0.72-0.33,1.08-0.58c2.02-1.33,3.02-3.69,3.02-7.08
		c0-1.3,0.13-2.42,0.39-3.38c0.26-0.95,0.59-1.78,0.99-2.49s0.84-1.29,1.33-1.76c0.48-0.47,0.96-0.84,1.43-1.12
		c0.52-0.3,1.04-0.54,1.53-0.7s0.95-0.29,1.35-0.37s0.72-0.13,0.95-0.14c0.23-0.01,0.37-0.02,0.39-0.02s0.15,0.01,0.37,0.02
		c0.22,0.01,0.5,0.06,0.85,0.14c0.34,0.08,0.74,0.21,1.18,0.37c0.44,0.17,0.9,0.41,1.37,0.75c0.55,0.39,1.04,0.83,1.45,1.33
		c0.41,0.5,0.79,1.06,1.12,1.7c0.72,1.6,1.08,3.49,1.08,5.68c0,1.27-0.12,2.39-0.37,3.36c-0.25,0.97-0.56,1.8-0.93,2.51
		c-0.37,0.7-0.8,1.28-1.28,1.74c-0.48,0.46-0.95,0.84-1.39,1.14c-0.5,0.3-0.99,0.54-1.47,0.73c-0.48,0.18-0.91,0.31-1.28,0.39
		c-0.37,0.08-0.68,0.13-0.91,0.14c-0.24,0.01-0.37,0.02-0.39,0.02v-1.91c0.33-0.03,0.66-0.08,0.99-0.17
		c0.3-0.06,0.64-0.15,1.01-0.29c0.37-0.14,0.75-0.33,1.14-0.58c2.02-1.33,3.02-3.69,3.02-7.08c0-3.45-0.94-5.83-2.81-7.13
		c-0.36-0.25-0.7-0.43-1.01-0.56c-0.32-0.12-0.6-0.21-0.85-0.27c-0.3-0.08-0.59-0.12-0.87-0.12c-0.33,0-0.67,0.04-1.03,0.12
		c-0.3,0.06-0.66,0.15-1.07,0.29c-0.41,0.14-0.81,0.35-1.2,0.62c-2.15,1.27-3.22,3.62-3.22,7.04c0,1.27-0.12,2.39-0.35,3.36
		c-0.24,0.97-0.55,1.79-0.93,2.49s-0.82,1.27-1.29,1.74c-0.47,0.47-0.93,0.86-1.37,1.16c-0.47,0.3-0.94,0.54-1.41,0.73
		c-0.47,0.18-0.89,0.31-1.25,0.39c-0.36,0.08-0.66,0.13-0.89,0.14c-0.24,0.01-0.37,0.02-0.39,0.02c-0.03,0-0.16-0.01-0.39-0.02
		c-0.24-0.01-0.54-0.06-0.91-0.14c-0.37-0.08-0.8-0.21-1.27-0.39c-0.47-0.18-0.94-0.42-1.41-0.73c-1.16-0.77-2.08-1.8-2.74-3.07
		C264.51,476.35,264.11,474.46,264.11,472.22z"/>
	<path class="st2" d="M264.15,493.79c0-0.27,0.1-0.49,0.29-0.67c0.19-0.18,0.4-0.26,0.62-0.26h28.01c0.22,0,0.43,0.09,0.62,0.26
		c0.19,0.17,0.29,0.4,0.29,0.67c0,0.3-0.1,0.53-0.29,0.71c-0.19,0.17-0.4,0.26-0.62,0.26h-28.01c-0.22,0-0.43-0.09-0.62-0.26
		C264.24,494.32,264.15,494.09,264.15,493.79z"/>
	<path class="st2" d="M263.65,520.66c0-2.04,0.4-4.03,1.2-5.97c0.8-1.85,1.89-3.47,3.27-4.85c1.38-1.38,3-2.47,4.85-3.27
		c1.91-0.8,3.88-1.2,5.92-1.2c2.04,0,4.03,0.4,5.97,1.2c1.85,0.8,3.47,1.89,4.85,3.27c1.38,1.38,2.47,3,3.27,4.85
		c0.8,1.93,1.2,3.92,1.2,5.97c0,1.99-0.35,3.88-1.06,5.68s-1.75,3.41-3.13,4.85c-0.17,0.19-0.38,0.29-0.64,0.29s-0.49-0.1-0.68-0.29
		c-0.19-0.17-0.3-0.38-0.31-0.64c-0.01-0.26,0.08-0.49,0.27-0.68c1.19-1.24,2.1-2.65,2.73-4.23c0.63-1.57,0.95-3.23,0.95-4.97
		c0-1.85-0.35-3.58-1.06-5.2c-0.71-1.62-1.67-3.03-2.89-4.25c-1.22-1.22-2.64-2.18-4.26-2.88s-3.36-1.06-5.21-1.06
		c-1.83,0-3.56,0.35-5.2,1.06c-1.64,0.7-3.06,1.66-4.26,2.88c-1.21,1.21-2.16,2.63-2.87,4.25c-0.71,1.62-1.06,3.35-1.06,5.2
		c0,1.55,0.26,3.03,0.77,4.45c0.51,1.42,1.25,2.74,2.22,3.96h9.44v-10.65c0-0.28,0.09-0.5,0.28-0.68s0.41-0.27,0.65-0.27
		c0.27,0,0.49,0.09,0.67,0.27s0.26,0.41,0.26,0.68v11.6c0,0.25-0.09,0.47-0.27,0.66c-0.18,0.19-0.41,0.29-0.68,0.29h-10.79
		c-0.3,0-0.54-0.11-0.7-0.33c-1.21-1.41-2.14-2.97-2.77-4.68S263.65,522.48,263.65,520.66z"/>
	<path class="st2" d="M264.52,560.02l-0.04-0.04v-0.04h-0.04v-0.04h-0.04v-0.04l-0.04-0.04v-0.04l-0.08-0.08v-0.04v-0.04l-0.04-0.04
		v-0.08v-0.04v-0.04v-0.04v-0.04v-0.04v-0.04v-0.04v-0.04c0-0.03,0.01-0.05,0.02-0.06c0.01-0.01,0.02-0.04,0.02-0.06
		c0-0.03,0.01-0.05,0.02-0.06c0.01-0.01,0.02-0.04,0.02-0.06s0.01-0.04,0.04-0.04v-0.04c0-0.03,0.01-0.04,0.04-0.04v-0.04h0.04
		v-0.04h0.04v-0.04l0.04-0.04l0.04-0.04h0.04c0-0.03,0.01-0.04,0.04-0.04l0.04-0.04h0.04l24.78-14.54h-24.36
		c-0.25,0-0.46-0.09-0.64-0.27c-0.18-0.18-0.27-0.41-0.27-0.68c0-0.28,0.09-0.5,0.27-0.68c0.18-0.18,0.39-0.27,0.64-0.27h27.84h0.04
		h0.04h0.04h0.04h0.04l0.04,0.04h0.04h0.04h0.04v0.04h0.04c0,0.03,0.01,0.04,0.04,0.04h0.04v0.04h0.04l0.04,0.04
		c0.03,0,0.04,0.01,0.04,0.04l0.04,0.04h0.04v0.04h0.04v0.04c0,0.03,0.01,0.04,0.04,0.04v0.04l0.04,0.04v0.04l0.04,0.04v0.04
		l0.04,0.04v0.04v0.04v0.04v0.04c0.03,0,0.04,0.01,0.04,0.04v0.04v0.04v0.04v0.04v0.04c-0.03,0-0.04,0.01-0.04,0.04v0.04v0.04v0.04
		c-0.03,0-0.04,0.01-0.04,0.04v0.04c0,0.03-0.01,0.04-0.04,0.04v0.04v0.04h-0.04v0.04l-0.04,0.04l-0.04,0.04l-0.04,0.04l-0.04,0.04
		l-0.04,0.04l-0.04,0.04h-0.04c0,0.03-0.01,0.04-0.04,0.04l-24.82,14.54h24.4c0.22,0,0.43,0.09,0.62,0.27
		c0.19,0.18,0.29,0.41,0.29,0.68c0,0.28-0.1,0.5-0.29,0.68c-0.19,0.18-0.4,0.27-0.62,0.27h-27.88h-0.04h-0.04h-0.04h-0.04
		c-0.03,0-0.04-0.01-0.04-0.04h-0.04h-0.04c-0.03,0-0.04-0.01-0.04-0.04h-0.04c-0.03,0-0.04-0.01-0.04-0.04h-0.04l-0.04-0.04
		l-0.04-0.04h-0.04C264.56,560.03,264.55,560.02,264.52,560.02z"/>
</g>
<g>
	<path class="st2" d="M204.35,413.06c0-1.11,0.1-2.13,0.29-3.07c0.19-0.94,0.47-1.81,0.83-2.61c0.69-1.3,1.56-2.31,2.61-3.02
		c0.44-0.33,0.89-0.58,1.35-0.75c0.46-0.17,0.86-0.29,1.22-0.37c0.36-0.08,0.65-0.13,0.87-0.15c0.22-0.01,0.35-0.02,0.37-0.02v1.91
		c-0.3,0-0.61,0.04-0.91,0.12c-0.28,0.06-0.59,0.15-0.93,0.29c-0.35,0.14-0.68,0.33-1.02,0.58c-1.88,1.33-2.82,3.69-2.82,7.08
		c0,3.4,0.99,5.76,2.98,7.08c0.72,0.47,1.39,0.76,2.03,0.87c0.64,0.11,0.98,0.17,1.04,0.17c0.03,0,0.13-0.01,0.31-0.02
		c0.18-0.01,0.41-0.05,0.68-0.12c0.28-0.07,0.59-0.17,0.95-0.31c0.36-0.14,0.72-0.33,1.08-0.58c2.02-1.33,3.02-3.69,3.02-7.08
		c0-1.3,0.13-2.42,0.39-3.38c0.26-0.95,0.59-1.78,0.99-2.49c0.4-0.7,0.84-1.29,1.33-1.76c0.48-0.47,0.96-0.84,1.43-1.12
		c0.52-0.3,1.04-0.54,1.53-0.7c0.5-0.17,0.95-0.29,1.35-0.37c0.4-0.08,0.72-0.13,0.95-0.15c0.23-0.01,0.37-0.02,0.39-0.02
		c0.03,0,0.15,0.01,0.37,0.02c0.22,0.01,0.5,0.06,0.85,0.15c0.35,0.08,0.74,0.21,1.18,0.37c0.44,0.17,0.9,0.42,1.37,0.75
		c0.55,0.39,1.04,0.83,1.45,1.33c0.41,0.5,0.79,1.06,1.12,1.7c0.72,1.6,1.08,3.49,1.08,5.68c0,1.27-0.12,2.39-0.37,3.36
		c-0.25,0.97-0.56,1.8-0.93,2.51c-0.37,0.7-0.8,1.28-1.28,1.74c-0.48,0.46-0.95,0.83-1.39,1.14c-0.5,0.3-0.99,0.54-1.47,0.72
		c-0.48,0.18-0.91,0.31-1.28,0.39c-0.37,0.08-0.68,0.13-0.91,0.14c-0.23,0.01-0.37,0.02-0.39,0.02v-1.91
		c0.33-0.03,0.66-0.08,0.99-0.17c0.3-0.06,0.64-0.15,1.02-0.29c0.37-0.14,0.75-0.33,1.14-0.58c2.02-1.33,3.02-3.69,3.02-7.08
		c0-3.45-0.94-5.83-2.81-7.13c-0.36-0.25-0.7-0.43-1.01-0.56c-0.32-0.12-0.6-0.21-0.85-0.27c-0.3-0.08-0.59-0.12-0.87-0.12
		c-0.33,0-0.67,0.04-1.03,0.12c-0.3,0.06-0.66,0.15-1.07,0.29c-0.41,0.14-0.81,0.34-1.2,0.62c-2.15,1.27-3.22,3.62-3.22,7.04
		c0,1.27-0.12,2.39-0.35,3.36c-0.24,0.97-0.55,1.79-0.93,2.49s-0.82,1.27-1.29,1.74s-0.93,0.86-1.37,1.16
		c-0.47,0.3-0.94,0.54-1.41,0.72c-0.47,0.18-0.89,0.31-1.25,0.39c-0.36,0.08-0.66,0.13-0.89,0.14c-0.24,0.01-0.37,0.02-0.39,0.02
		c-0.03,0-0.16-0.01-0.4-0.02c-0.24-0.01-0.54-0.06-0.91-0.14c-0.37-0.08-0.8-0.21-1.27-0.39c-0.47-0.18-0.94-0.42-1.41-0.72
		c-1.16-0.77-2.08-1.8-2.74-3.07C204.75,417.19,204.35,415.3,204.35,413.06z"/>
	<path class="st2" d="M233.91,452.53c-0.18,0.18-0.39,0.27-0.64,0.27c-0.25,0-0.47-0.09-0.66-0.27c-0.19-0.18-0.29-0.41-0.29-0.68
		v-9.57H205.3c-0.25,0-0.46-0.09-0.64-0.27c-0.18-0.18-0.27-0.41-0.27-0.68c0-0.28,0.09-0.5,0.27-0.68
		c0.18-0.18,0.39-0.27,0.64-0.27h27.01v-9.57c0-0.28,0.1-0.5,0.29-0.68c0.19-0.18,0.41-0.27,0.66-0.27c0.25,0,0.46,0.09,0.64,0.27
		c0.18,0.18,0.27,0.41,0.27,0.68v21.05C234.18,452.12,234.09,452.35,233.91,452.53z"/>
	<path class="st2" d="M205.55,475c-0.25,0.08-0.48,0.07-0.7-0.04c-0.22-0.11-0.39-0.29-0.5-0.54c-0.03-0.06-0.04-0.17-0.04-0.33
		c0-0.19,0.05-0.37,0.15-0.54c0.1-0.17,0.25-0.28,0.48-0.33l1.91-0.75l5.47-15.74l-7.37-2.78c-0.25-0.08-0.43-0.25-0.54-0.5
		c-0.11-0.25-0.12-0.48-0.04-0.7c0.11-0.25,0.28-0.43,0.5-0.56c0.22-0.13,0.46-0.13,0.7-0.02l28.01,10.52
		c0.41,0.14,0.62,0.43,0.62,0.87c0,0.47-0.21,0.77-0.62,0.91L205.55,475z M209.12,471.65l21.42-8.08l-16.49-6.17L209.12,471.65z"/>
	<path class="st2" d="M219.45,498.69c-0.66,1.27-1.62,2.3-2.86,3.09c-1.25,0.79-2.63,1.18-4.15,1.18c-1.11,0-2.14-0.21-3.11-0.62
		c-0.97-0.42-1.81-0.99-2.53-1.72c-0.72-0.73-1.29-1.58-1.7-2.55c-0.42-0.97-0.62-2.01-0.62-3.11l0.04-10.84
		c0-0.28,0.09-0.5,0.27-0.68c0.18-0.18,0.39-0.27,0.64-0.27h28.01c0.25,0,0.46,0.09,0.64,0.27c0.18,0.18,0.27,0.41,0.27,0.68
		l0.04,10.84c0,1.11-0.21,2.14-0.62,3.11s-0.98,1.82-1.7,2.55s-1.56,1.31-2.52,1.72c-0.97,0.42-2,0.62-3.1,0.62
		c-1.52,0-2.9-0.39-4.14-1.18C221.07,501,220.12,499.96,219.45,498.69z M206.34,494.95c0,0.83,0.16,1.61,0.48,2.36
		c0.32,0.74,0.75,1.4,1.3,1.96c0.55,0.56,1.2,1,1.95,1.32c0.75,0.32,1.53,0.48,2.36,0.48s1.62-0.16,2.36-0.48
		c0.75-0.32,1.39-0.76,1.95-1.32c0.55-0.56,0.99-1.22,1.3-1.96c0.32-0.74,0.48-1.53,0.48-2.36v-9.88h-12.14L206.34,494.95z
		 M232.53,485.07h-12.14v9.88c0,0.83,0.16,1.61,0.48,2.36c0.32,0.74,0.75,1.4,1.31,1.96c0.55,0.56,1.2,1,1.95,1.32
		c0.75,0.32,1.53,0.48,2.36,0.48s1.62-0.16,2.36-0.48c0.75-0.32,1.39-0.76,1.95-1.32c0.55-0.56,0.99-1.22,1.31-1.96
		c0.32-0.74,0.48-1.53,0.48-2.36L232.53,485.07z"/>
	<path class="st2" d="M204.39,515.05c0-0.27,0.1-0.49,0.29-0.67c0.19-0.18,0.4-0.26,0.62-0.26h28.01c0.22,0,0.43,0.09,0.62,0.26
		c0.19,0.17,0.29,0.4,0.29,0.67c0,0.3-0.1,0.53-0.29,0.71c-0.19,0.17-0.4,0.26-0.62,0.26H205.3c-0.22,0-0.43-0.09-0.62-0.26
		C204.49,515.58,204.39,515.34,204.39,515.05z"/>
	<path class="st2" d="M204.44,546.93v-17.26c0-0.25,0.09-0.47,0.27-0.66c0.18-0.18,0.39-0.28,0.64-0.28h27.72
		c0.22,0,0.43,0.09,0.62,0.28c0.19,0.18,0.29,0.4,0.29,0.66c0,0.28-0.1,0.52-0.29,0.7s-0.4,0.28-0.62,0.28H206.3v16.28
		c0,0.22-0.09,0.43-0.28,0.62c-0.18,0.19-0.4,0.29-0.66,0.29c-0.25,0-0.47-0.1-0.66-0.29C204.53,547.36,204.44,547.15,204.44,546.93
		z"/>
	<path class="st2" d="M204.39,555.23c0-0.27,0.1-0.49,0.29-0.67c0.19-0.18,0.4-0.26,0.62-0.26h28.01c0.22,0,0.43,0.09,0.62,0.26
		c0.19,0.17,0.29,0.4,0.29,0.67c0,0.3-0.1,0.53-0.29,0.71c-0.19,0.17-0.4,0.26-0.62,0.26H205.3c-0.22,0-0.43-0.09-0.62-0.26
		C204.49,555.77,204.39,555.53,204.39,555.23z"/>
	<path class="st2" d="M233.91,588.38c-0.18,0.18-0.39,0.27-0.64,0.27c-0.25,0-0.47-0.09-0.66-0.27c-0.19-0.18-0.29-0.41-0.29-0.68
		v-9.57H205.3c-0.25,0-0.46-0.09-0.64-0.27c-0.18-0.18-0.27-0.41-0.27-0.68s0.09-0.5,0.27-0.68c0.18-0.18,0.39-0.27,0.64-0.27h27.01
		v-9.57c0-0.28,0.1-0.5,0.29-0.68c0.19-0.18,0.41-0.27,0.66-0.27c0.25,0,0.46,0.09,0.64,0.27c0.18,0.18,0.27,0.41,0.27,0.68v21.05
		C234.18,587.97,234.09,588.2,233.91,588.38z"/>
	<path class="st2" d="M234.02,623.2c-0.17,0.22-0.37,0.35-0.6,0.39c-0.24,0.04-0.46-0.02-0.68-0.19l-14.92-11.06h-12.55
		c-0.22,0-0.43-0.1-0.62-0.3c-0.19-0.2-0.29-0.41-0.29-0.64c0-0.28,0.1-0.52,0.29-0.7c0.19-0.18,0.4-0.27,0.62-0.27h12.55
		l14.92-11.1c0.22-0.14,0.45-0.19,0.68-0.17c0.23,0.03,0.43,0.15,0.6,0.37c0.14,0.22,0.19,0.46,0.17,0.72
		c-0.03,0.26-0.15,0.46-0.37,0.6l-14.17,10.54l14.17,10.46c0.22,0.14,0.34,0.34,0.37,0.6C234.21,622.74,234.15,622.98,234.02,623.2z
		"/>
</g>
<g>
	<path class="st2" d="M318.96,420.52v-17.26c0-0.25,0.09-0.47,0.27-0.66s0.39-0.28,0.64-0.28h27.72c0.22,0,0.43,0.09,0.62,0.28
		s0.29,0.4,0.29,0.66c0,0.28-0.1,0.52-0.29,0.7s-0.4,0.28-0.62,0.28h-26.77v16.28c0,0.22-0.09,0.43-0.28,0.62s-0.4,0.29-0.66,0.29
		c-0.25,0-0.47-0.1-0.66-0.29S318.96,420.74,318.96,420.52z"/>
	<path class="st2" d="M318.92,428.82c0-0.27,0.1-0.49,0.29-0.67c0.19-0.18,0.4-0.26,0.62-0.26h28.01c0.22,0,0.43,0.09,0.62,0.26
		c0.19,0.18,0.29,0.4,0.29,0.67c0,0.3-0.1,0.53-0.29,0.71c-0.19,0.18-0.4,0.26-0.62,0.26h-28.01c-0.22,0-0.43-0.09-0.62-0.26
		C319.02,429.36,318.92,429.12,318.92,428.82z"/>
	<path class="st2" d="M319.29,460.54l-0.04-0.04v-0.04h-0.04v-0.04h-0.04v-0.04l-0.04-0.04v-0.04l-0.08-0.08v-0.04v-0.04l-0.04-0.04
		V460v-0.04v-0.04v-0.04v-0.04v-0.04v-0.04v-0.04v-0.04c0-0.03,0.01-0.05,0.02-0.06c0.01-0.01,0.02-0.04,0.02-0.06
		s0.01-0.05,0.02-0.06s0.02-0.04,0.02-0.06s0.01-0.04,0.04-0.04v-0.04c0-0.03,0.01-0.04,0.04-0.04v-0.04h0.04v-0.04h0.04v-0.04
		l0.04-0.04l0.04-0.04h0.04c0-0.03,0.01-0.04,0.04-0.04l0.04-0.04h0.04l24.78-14.54h-24.36c-0.25,0-0.46-0.09-0.64-0.27
		s-0.27-0.41-0.27-0.68s0.09-0.5,0.27-0.68s0.39-0.27,0.64-0.27h27.84h0.04h0.04h0.04h0.04h0.04l0.04,0.04h0.04h0.04h0.04v0.04h0.04
		c0,0.03,0.01,0.04,0.04,0.04h0.04v0.04h0.04l0.04,0.04c0.03,0,0.04,0.01,0.04,0.04l0.04,0.04h0.04v0.04h0.04v0.04
		c0,0.03,0.01,0.04,0.04,0.04v0.04l0.04,0.04v0.04l0.04,0.04v0.04l0.04,0.04v0.04v0.04v0.04v0.04c0.03,0,0.04,0.01,0.04,0.04v0.04
		v0.04v0.04v0.04v0.04c-0.03,0-0.04,0.01-0.04,0.04v0.04v0.04v0.04c-0.03,0-0.04,0.01-0.04,0.04v0.04c0,0.03-0.01,0.04-0.04,0.04
		v0.04v0.04h-0.04v0.04l-0.04,0.04l-0.04,0.04l-0.04,0.04l-0.04,0.04l-0.04,0.04l-0.04,0.04h-0.04c0,0.03-0.01,0.04-0.04,0.04
		l-24.82,14.54h24.4c0.22,0,0.43,0.09,0.62,0.27c0.19,0.18,0.29,0.41,0.29,0.68c0,0.28-0.1,0.5-0.29,0.68
		c-0.19,0.18-0.4,0.27-0.62,0.27h-27.88h-0.04h-0.04h-0.04h-0.04c-0.03,0-0.04-0.01-0.04-0.04h-0.04h-0.04
		c-0.03,0-0.04-0.01-0.04-0.04h-0.04c-0.03,0-0.04-0.01-0.04-0.04h-0.04l-0.04-0.04l-0.04-0.04h-0.04
		C319.33,460.55,319.32,460.54,319.29,460.54z"/>
	<path class="st2" d="M320.02,492.9c-0.23,0.03-0.46-0.04-0.68-0.21c-0.25-0.22-0.37-0.47-0.37-0.75c0-0.19,0.07-0.39,0.21-0.58
		l12.93-16.78h-12.18c-0.28,0-0.5-0.09-0.68-0.27s-0.27-0.41-0.27-0.68s0.09-0.5,0.27-0.68s0.41-0.27,0.68-0.27h28.3
		c0.25,0,0.46,0.09,0.64,0.27c0.18,0.18,0.27,0.41,0.27,0.68s-0.09,0.5-0.27,0.68c-0.18,0.18-0.39,0.27-0.64,0.27h-12.26
		l12.97,16.78c0.17,0.22,0.23,0.46,0.21,0.7c-0.03,0.25-0.15,0.46-0.37,0.62c-0.22,0.17-0.45,0.23-0.68,0.21
		c-0.24-0.03-0.44-0.15-0.6-0.37l-13.42-17.36l-13.42,17.36C320.45,492.75,320.25,492.87,320.02,492.9z"/>
</g>
<g>
</g>
<rect x="248.17" y="401.95" class="st3" width="2.49" height="129.47"/>
<rect x="307.19" y="401.71" class="st3" width="2.53" height="59.75"/>
<g>
</g>
<g>
</g>
<g>
</g>
<g>
</g>
<g>
</g>
<g>
</g>
<g>
</g>
<g>
</g>
<g>
</g>
<g>
</g>
<g>
</g>
<g>
</g>
<g>
</g>
<g>
</g>
<g>
</g>
</svg>
